<?xml version="1.0" encoding="utf-8" standalone="no"?>
<!DOCTYPE svg PUBLIC "-//W3C//DTD SVG 1.1//EN"
  "http://www.w3.org/Graphics/SVG/1.1/DTD/svg11.dtd">
<svg xmlns:xlink="http://www.w3.org/1999/xlink" width="1008pt" height="864pt" viewBox="0 0 1008 864" xmlns="http://www.w3.org/2000/svg" version="1.1">
 <metadata>
  <rdf:RDF xmlns:dc="http://purl.org/dc/elements/1.1/" xmlns:cc="http://creativecommons.org/ns#" xmlns:rdf="http://www.w3.org/1999/02/22-rdf-syntax-ns#">
   <cc:Work>
    <dc:type rdf:resource="http://purl.org/dc/dcmitype/StillImage"/>
    <dc:date>2023-03-31T16:55:01.401113</dc:date>
    <dc:format>image/svg+xml</dc:format>
    <dc:creator>
     <cc:Agent>
      <dc:title>Matplotlib v3.6.1, https://matplotlib.org/</dc:title>
     </cc:Agent>
    </dc:creator>
   </cc:Work>
  </rdf:RDF>
 </metadata>
 <defs>
  <style type="text/css">*{stroke-linejoin: round; stroke-linecap: butt}</style>
 </defs>
 <g id="figure_1">
  <g id="patch_1">
   <path d="M 0 864
L 1008 864
L 1008 0
L 0 0
z
" style="fill: #ffffff"/>
  </g>
  <g id="axes_1">
   <g id="patch_2">
    <path d="M 99.516723 385.073444
Q 111.330652 354.492898 122.741681 324.955266
" clip-path="url(#p27c0e77723)" style="fill: none; stroke: #000000; stroke-linecap: round"/>
    <path d="M 119.434597 327.965781
L 122.741681 324.955266
L 123.165842 329.407242
L 119.434597 327.965781
z
" clip-path="url(#p27c0e77723)" style="stroke: #000000; stroke-linecap: round"/>
   </g>
   <g id="patch_3">
    <path d="M 129.385859 307.760514
Q 141.205282 277.180167 152.621639 247.642671
" clip-path="url(#p27c0e77723)" style="fill: none; stroke: #000000; stroke-linecap: round"/>
    <path d="M 149.314079 250.652662
L 152.621639 247.642671
L 153.045095 252.094714
L 149.314079 250.652662
z
" clip-path="url(#p27c0e77723)" style="stroke: #000000; stroke-linecap: round"/>
   </g>
   <g id="patch_4">
    <path d="M 159.268907 230.448088
Q 171.093912 199.86794 182.515683 170.330579
" clip-path="url(#p27c0e77723)" style="fill: none; stroke: #000000; stroke-linecap: round"/>
    <path d="M 179.207638 173.340037
L 182.515683 170.330579
L 182.938422 174.78269
L 179.207638 173.340037
z
" clip-path="url(#p27c0e77723)" style="stroke: #000000; stroke-linecap: round"/>
   </g>
   <g id="patch_5">
    <path d="M 189.166056 153.13617
Q 200.996598 122.556241 212.42374 93.019033
" clip-path="url(#p27c0e77723)" style="fill: none; stroke: #000000; stroke-linecap: round"/>
    <path d="M 209.115214 96.027961
L 212.42374 93.019033
L 212.845767 97.471211
L 209.115214 96.027961
z
" clip-path="url(#p27c0e77723)" style="stroke: #000000; stroke-linecap: round"/>
   </g>
   <g id="patch_6">
    <path d="M 310.698788 307.849792
Q 322.543087 277.270134 333.983574 247.733039
" clip-path="url(#p27c0e77723)" style="fill: none; stroke: #000000; stroke-linecap: round"/>
    <path d="M 330.673862 250.740663
L 333.983574 247.733039
L 334.403846 252.185383
L 330.673862 250.740663
z
" clip-path="url(#p27c0e77723)" style="stroke: #000000; stroke-linecap: round"/>
   </g>
   <g id="patch_7">
    <path d="M 340.640397 230.539112
Q 352.473884 199.959672 363.903878 170.422918
" clip-path="url(#p27c0e77723)" style="fill: none; stroke: #000000; stroke-linecap: round"/>
    <path d="M 360.595083 173.431551
L 363.903878 170.422918
L 364.325508 174.875134
L 360.595083 173.431551
z
" clip-path="url(#p27c0e77723)" style="stroke: #000000; stroke-linecap: round"/>
   </g>
   <g id="patch_8">
    <path d="M 370.561172 153.228978
Q 382.40846 122.649737 393.851842 93.113023
" clip-path="url(#p27c0e77723)" style="fill: none; stroke: #000000; stroke-linecap: round"/>
    <path d="M 390.54186 96.12035
L 393.851842 93.113023
L 394.271715 97.565405
L 390.54186 96.12035
z
" clip-path="url(#p27c0e77723)" style="stroke: #000000; stroke-linecap: round"/>
   </g>
   <g id="patch_9">
    <path d="M 406.046813 84.000198
Q 488.101866 84.047603 569.038886 84.094361
" clip-path="url(#p27c0e77723)" style="fill: none; stroke: #000000; stroke-linecap: round"/>
    <path d="M 565.040042 82.092051
L 569.038886 84.094361
L 565.037731 86.09205
L 565.040042 82.092051
z
" clip-path="url(#p27c0e77723)" style="stroke: #000000; stroke-linecap: round"/>
   </g>
   <g id="patch_10">
    <path d="M 587.479502 84.105511
Q 669.534505 84.157621 750.471475 84.209021
" clip-path="url(#p27c0e77723)" style="fill: none; stroke: #000000; stroke-linecap: round"/>
    <path d="M 746.472746 82.206481
L 750.471475 84.209021
L 746.470205 86.20648
L 746.472746 82.206481
z
" clip-path="url(#p27c0e77723)" style="stroke: #000000; stroke-linecap: round"/>
   </g>
   <g id="patch_11">
    <path d="M 648.849027 393.448628
Q 730.819753 393.502245 811.672445 393.555132
" clip-path="url(#p27c0e77723)" style="fill: none; stroke: #000000; stroke-linecap: round"/>
    <path d="M 807.673754 391.552516
L 811.672445 393.555132
L 807.671137 395.552515
L 807.673754 391.552516
z
" clip-path="url(#p27c0e77723)" style="stroke: #000000; stroke-linecap: round"/>
   </g>
   <g id="patch_12">
    <path d="M 824.588578 385.490742
Q 836.469901 354.910903 847.946318 325.373203
" clip-path="url(#p27c0e77723)" style="fill: none; stroke: #000000; stroke-linecap: round"/>
    <path d="M 844.633448 328.377349
L 847.946318 325.373203
L 848.361913 329.825986
L 844.633448 328.377349
z
" clip-path="url(#p27c0e77723)" style="stroke: #000000; stroke-linecap: round"/>
   </g>
   <g id="patch_13">
    <path d="M 842.826886 316.249854
Q 760.834482 316.195427 679.960112 316.141741
" clip-path="url(#p27c0e77723)" style="fill: none; stroke: #000000; stroke-linecap: round"/>
    <path d="M 683.958784 318.144396
L 679.960112 316.141741
L 683.961439 314.144397
L 683.958784 318.144396
z
" clip-path="url(#p27c0e77723)" style="stroke: #000000; stroke-linecap: round"/>
   </g>
   <g id="patch_14">
    <path d="M 673.317703 308.059611
Q 685.187141 277.481349 696.652006 247.945354
" clip-path="url(#p27c0e77723)" style="fill: none; stroke: #000000; stroke-linecap: round"/>
    <path d="M 693.340099 250.950562
L 696.652006 247.945354
L 697.069028 252.398004
L 693.340099 250.950562
z
" clip-path="url(#p27c0e77723)" style="stroke: #000000; stroke-linecap: round"/>
   </g>
   <g id="patch_15">
    <path d="M 708.849452 238.833874
Q 790.863578 238.889112 871.759671 238.943597
" clip-path="url(#p27c0e77723)" style="fill: none; stroke: #000000; stroke-linecap: round"/>
    <path d="M 867.761019 236.940904
L 871.759671 238.943597
L 867.758325 240.940903
L 867.761019 236.940904
z
" clip-path="url(#p27c0e77723)" style="stroke: #000000; stroke-linecap: round"/>
   </g>
   <g id="patch_16">
    <path d="M 244.643877 478.624959
Q 232.82441 509.205233 221.408011 538.742657
" clip-path="url(#p27c0e77723)" style="fill: none; stroke: #000000; stroke-linecap: round"/>
    <path d="M 224.715578 535.732673
L 221.408011 538.742657
L 220.984564 534.290613
L 224.715578 535.732673
z
" clip-path="url(#p27c0e77723)" style="stroke: #000000; stroke-linecap: round"/>
   </g>
   <g id="patch_17">
    <path d="M 214.763654 555.937307
Q 202.949724 586.51778 191.538696 616.055339
" clip-path="url(#p27c0e77723)" style="fill: none; stroke: #000000; stroke-linecap: round"/>
    <path d="M 194.845782 613.044827
L 191.538696 616.055339
L 191.114538 611.603363
L 194.845782 613.044827
z
" clip-path="url(#p27c0e77723)" style="stroke: #000000; stroke-linecap: round"/>
   </g>
   <g id="patch_18">
    <path d="M 184.89562 633.254878
Q 173.088077 663.833466 161.683268 693.369076
" clip-path="url(#p27c0e77723)" style="fill: none; stroke: #000000; stroke-linecap: round"/>
    <path d="M 164.989869 690.358032
L 161.683268 693.369076
L 161.258393 688.917168
L 164.989869 690.358032
z
" clip-path="url(#p27c0e77723)" style="stroke: #000000; stroke-linecap: round"/>
   </g>
   <g id="patch_19">
    <path d="M 166.825387 702.491527
Q 248.712409 702.53256 329.481398 702.573033
" clip-path="url(#p27c0e77723)" style="fill: none; stroke: #000000; stroke-linecap: round"/>
    <path d="M 325.4824 700.571029
L 329.481398 702.573033
L 325.480396 704.571028
L 325.4824 700.571029
z
" clip-path="url(#p27c0e77723)" style="stroke: #000000; stroke-linecap: round"/>
   </g>
   <g id="patch_20">
    <path d="M 425.861527 478.720794
Q 414.025491 509.300379 402.593022 538.837307
" clip-path="url(#p27c0e77723)" style="fill: none; stroke: #000000; stroke-linecap: round"/>
    <path d="M 405.90203 535.828908
L 402.593022 538.837307
L 402.171707 534.385062
L 405.90203 535.828908
z
" clip-path="url(#p27c0e77723)" style="stroke: #000000; stroke-linecap: round"/>
   </g>
   <g id="patch_21">
    <path d="M 395.939403 556.031396
Q 384.10886 586.611162 372.68172 616.148208
" clip-path="url(#p27c0e77723)" style="fill: none; stroke: #000000; stroke-linecap: round"/>
    <path d="M 375.990252 613.139285
L 372.68172 616.148208
L 372.259701 611.696029
L 375.990252 613.139285
z
" clip-path="url(#p27c0e77723)" style="stroke: #000000; stroke-linecap: round"/>
   </g>
   <g id="patch_22">
    <path d="M 376.862262 629.21284
Q 444.752573 663.97187 511.647703 698.221378
" clip-path="url(#p27c0e77723)" style="fill: none; stroke: #000000; stroke-linecap: round"/>
    <path d="M 508.99869 694.618222
L 511.647703 698.221378
L 507.175771 698.178695
L 508.99869 694.618222
z
" clip-path="url(#p27c0e77723)" style="stroke: #000000; stroke-linecap: round"/>
   </g>
   <g id="patch_23">
    <path d="M 517.228504 710.755048
Q 505.392512 741.334543 493.960087 770.87138
" clip-path="url(#p27c0e77723)" style="fill: none; stroke: #000000; stroke-linecap: round"/>
    <path d="M 497.269094 767.86298
L 493.960087 770.87138
L 493.538771 766.419134
L 497.269094 767.86298
z
" clip-path="url(#p27c0e77723)" style="stroke: #000000; stroke-linecap: round"/>
   </g>
   <g id="patch_24">
    <path d="M 466.63298 397.279097
Q 534.567525 432.043154 601.506783 466.297894
" clip-path="url(#p27c0e77723)" style="fill: none; stroke: #000000; stroke-linecap: round"/>
    <path d="M 598.85703 462.695282
L 601.506783 466.297894
L 597.034842 466.256129
L 598.85703 462.695282
z
" clip-path="url(#p27c0e77723)" style="stroke: #000000; stroke-linecap: round"/>
   </g>
   <g id="patch_25">
    <path d="M 607.079042 478.827028
Q 595.226349 509.405906 583.777725 538.942322
" clip-path="url(#p27c0e77723)" style="fill: none; stroke: #000000; stroke-linecap: round"/>
    <path d="M 587.088181 535.935516
L 583.777725 538.942322
L 583.358554 534.489874
L 587.088181 535.935516
z
" clip-path="url(#p27c0e77723)" style="stroke: #000000; stroke-linecap: round"/>
   </g>
   <g id="patch_26">
    <path d="M 577.114818 556.135847
Q 565.267663 586.714925 553.82441 616.251475
" clip-path="url(#p27c0e77723)" style="fill: none; stroke: #000000; stroke-linecap: round"/>
    <path d="M 557.134386 613.244141
L 553.82441 616.251475
L 553.404528 611.799094
L 557.134386 613.244141
z
" clip-path="url(#p27c0e77723)" style="stroke: #000000; stroke-linecap: round"/>
   </g>
   <g id="patch_27">
    <path d="M 557.997917 629.316171
Q 625.86932 664.07907 692.745622 698.332289
" clip-path="url(#p27c0e77723)" style="fill: none; stroke: #000000; stroke-linecap: round"/>
    <path d="M 690.097179 694.728715
L 692.745622 698.332289
L 688.273697 698.288899
L 690.097179 694.728715
z
" clip-path="url(#p27c0e77723)" style="stroke: #000000; stroke-linecap: round"/>
   </g>
   <g id="patch_28">
    <path d="M 698.319808 710.866374
Q 686.467203 741.44518 675.018665 770.981522
" clip-path="url(#p27c0e77723)" style="fill: none; stroke: #000000; stroke-linecap: round"/>
    <path d="M 678.329116 767.974711
L 675.018665 770.981522
L 674.599486 766.529075
L 678.329116 767.974711
z
" clip-path="url(#p27c0e77723)" style="stroke: #000000; stroke-linecap: round"/>
   </g>
   <g id="patch_29">
    <path d="M 492.007277 307.949479
Q 503.860058 277.370528 515.308768 247.834039
" clip-path="url(#p27c0e77723)" style="fill: none; stroke: #000000; stroke-linecap: round"/>
    <path d="M 511.998307 250.84084
L 515.308768 247.834039
L 515.727932 252.286488
L 511.998307 250.84084
z
" clip-path="url(#p27c0e77723)" style="stroke: #000000; stroke-linecap: round"/>
   </g>
   <g id="patch_30">
    <path d="M 521.97466 230.640582
Q 533.833023 200.061831 545.287147 170.525476
" clip-path="url(#p27c0e77723)" style="fill: none; stroke: #000000; stroke-linecap: round"/>
    <path d="M 541.976202 173.531744
L 545.287147 170.525476
L 545.705594 174.977993
L 541.976202 173.531744
z
" clip-path="url(#p27c0e77723)" style="stroke: #000000; stroke-linecap: round"/>
   </g>
   <g id="patch_31">
    <path d="M 557.483355 161.413324
Q 639.519262 161.464646 720.437136 161.515269
" clip-path="url(#p27c0e77723)" style="fill: none; stroke: #000000; stroke-linecap: round"/>
    <path d="M 716.438388 159.512767
L 720.437136 161.515269
L 716.435886 163.512766
L 716.438388 159.512767
z
" clip-path="url(#p27c0e77723)" style="stroke: #000000; stroke-linecap: round"/>
   </g>
   <g id="patch_32">
    <path d="M 738.8737 161.527299
Q 820.909457 161.583327 901.827179 161.638591
" clip-path="url(#p27c0e77723)" style="fill: none; stroke: #000000; stroke-linecap: round"/>
    <path d="M 897.828546 159.635859
L 901.827179 161.638591
L 897.825814 163.635858
L 897.828546 159.635859
z
" clip-path="url(#p27c0e77723)" style="stroke: #000000; stroke-linecap: round"/>
   </g>
   <g id="patch_33">
    <path d="M 269.0011 393.232869
Q 187.030073 393.193365 106.17708 393.1544
" clip-path="url(#p27c0e77723)" style="fill: none; stroke: #000000; stroke-linecap: round"/>
    <path d="M 110.176116 395.156328
L 106.17708 393.1544
L 110.178043 391.156328
L 110.176116 395.156328
z
" clip-path="url(#p27c0e77723)" style="stroke: #000000; stroke-linecap: round"/>
   </g>
   <g id="patch_34">
    <path d="M 280.785469 385.160981
Q 292.616012 354.581123 304.043153 325.043987
" clip-path="url(#p27c0e77723)" style="fill: none; stroke: #000000; stroke-linecap: round"/>
    <path d="M 300.734624 328.052914
L 304.043153 325.043987
L 304.465177 329.496166
L 300.734624 328.052914
z
" clip-path="url(#p27c0e77723)" style="stroke: #000000; stroke-linecap: round"/>
   </g>
   <g id="patch_35">
    <path d="M 286.320991 393.241961
Q 458.92592 393.340003 630.412815 393.43741
" clip-path="url(#p27c0e77723)" style="fill: none; stroke: #000000; stroke-linecap: round"/>
    <path d="M 626.413952 391.435138
L 630.412815 393.43741
L 626.41168 395.435138
L 626.413952 391.435138
z
" clip-path="url(#p27c0e77723)" style="stroke: #000000; stroke-linecap: round"/>
   </g>
   <g id="patch_36">
    <path d="M 274.5381 401.313156
Q 262.713096 431.893212 251.291326 461.430483
" clip-path="url(#p27c0e77723)" style="fill: none; stroke: #000000; stroke-linecap: round"/>
    <path d="M 254.599374 458.421029
L 251.291326 461.430483
L 250.868591 456.978372
L 254.599374 458.421029
z
" clip-path="url(#p27c0e77723)" style="stroke: #000000; stroke-linecap: round"/>
   </g>
   <g id="patch_37">
    <path d="M 285.370994 397.180898
Q 353.324499 431.941064 420.282637 466.192072
" clip-path="url(#p27c0e77723)" style="fill: none; stroke: #000000; stroke-linecap: round"/>
    <path d="M 417.632313 462.589881
L 420.282637 466.192072
L 415.810689 466.151017
L 417.632313 462.589881
z
" clip-path="url(#p27c0e77723)" style="stroke: #000000; stroke-linecap: round"/>
   </g>
   <g id="patch_38">
    <path d="M 286.320996 393.241712
Q 368.291923 393.285921 449.144816 393.329526
" clip-path="url(#p27c0e77723)" style="fill: none; stroke: #000000; stroke-linecap: round"/>
    <path d="M 445.145895 391.327369
L 449.144816 393.329526
L 445.143738 395.327368
L 445.145895 391.327369
z
" clip-path="url(#p27c0e77723)" style="stroke: #000000; stroke-linecap: round"/>
   </g>
   <g id="patch_39">
    <path d="M 285.792429 390.26455
Q 383.267501 354.631727 479.692503 319.382766
" clip-path="url(#p27c0e77723)" style="fill: none; stroke: #000000; stroke-linecap: round"/>
    <path d="M 475.24898 318.877689
L 479.692503 319.382766
L 476.622327 322.634538
L 475.24898 318.877689
z
" clip-path="url(#p27c0e77723)" style="stroke: #000000; stroke-linecap: round"/>
   </g>
   <g id="patch_40">
    <path d="M 277.661054 323.617207
C 362.053043 323.617207 362.053043 393.237042 277.661054 393.237042
C 193.269064 393.237042 193.269064 323.617207 276.54302 323.617207
" clip-path="url(#p27c0e77723)" style="fill: none; stroke: #000000; stroke-linecap: round"/>
    <path d="M 272.54302 321.617207
L 276.54302 323.617207
L 272.54302 325.617207
L 272.54302 321.617207
z
" clip-path="url(#p27c0e77723)" style="stroke: #000000; stroke-linecap: round"/>
   </g>
   <g id="PathCollection_1">
    <defs>
     <path id="md4b72f7175" d="M 0 8.660254
C 2.296726 8.660254 4.499694 7.747755 6.123724 6.123724
C 7.747755 4.499694 8.660254 2.296726 8.660254 0
C 8.660254 -2.296726 7.747755 -4.499694 6.123724 -6.123724
C 4.499694 -7.747755 2.296726 -8.660254 0 -8.660254
C -2.296726 -8.660254 -4.499694 -7.747755 -6.123724 -6.123724
C -7.747755 -4.499694 -8.660254 -2.296726 -8.660254 0
C -8.660254 2.296726 -7.747755 4.499694 -6.123724 6.123724
C -4.499694 7.747755 -2.296726 8.660254 0 8.660254
z
" style="stroke: #e37225"/>
    </defs>
    <g clip-path="url(#p27c0e77723)">
     <use xlink:href="#md4b72f7175" x="96.396694" y="393.149687" style="fill: #e37225; stroke: #e37225"/>
     <use xlink:href="#md4b72f7175" x="126.26438" y="315.836704" style="fill: #e37225; stroke: #e37225"/>
     <use xlink:href="#md4b72f7175" x="156.145954" y="238.524226" style="fill: #e37225; stroke: #e37225"/>
     <use xlink:href="#md4b72f7175" x="186.04164" y="161.212251" style="fill: #e37225; stroke: #e37225"/>
     <use xlink:href="#md4b72f7175" x="215.951326" y="83.900826" style="fill: #e37225; stroke: #e37225"/>
     <use xlink:href="#md4b72f7175" x="307.57074" y="315.925801" style="fill: #e37225; stroke: #e37225"/>
     <use xlink:href="#md4b72f7175" x="337.515204" y="238.615064" style="fill: #e37225; stroke: #e37225"/>
     <use xlink:href="#md4b72f7175" x="367.432334" y="161.304877" style="fill: #e37225; stroke: #e37225"/>
     <use xlink:href="#md4b72f7175" x="397.384354" y="83.995194" style="fill: #e37225; stroke: #e37225"/>
     <use xlink:href="#md4b72f7175" x="578.817049" y="84.10001" style="fill: #e37225; stroke: #e37225"/>
     <use xlink:href="#md4b72f7175" x="760.249632" y="84.215231" style="fill: #e37225; stroke: #e37225"/>
     <use xlink:href="#md4b72f7175" x="640.189106" y="393.442963" style="fill: #e37225; stroke: #e37225"/>
     <use xlink:href="#md4b72f7175" x="821.452798" y="393.561529" style="fill: #e37225; stroke: #e37225"/>
     <use xlink:href="#md4b72f7175" x="851.488819" y="316.255604" style="fill: #e37225; stroke: #e37225"/>
     <use xlink:href="#md4b72f7175" x="670.183015" y="316.135251" style="fill: #e37225; stroke: #e37225"/>
     <use xlink:href="#md4b72f7175" x="700.191035" y="238.828043" style="fill: #e37225; stroke: #e37225"/>
     <use xlink:href="#md4b72f7175" x="881.539062" y="238.950184" style="fill: #e37225; stroke: #e37225"/>
     <use xlink:href="#md4b72f7175" x="247.765368" y="470.548787" style="fill: #e37225; stroke: #e37225"/>
     <use xlink:href="#md4b72f7175" x="217.883682" y="547.861083" style="fill: #e37225; stroke: #e37225"/>
     <use xlink:href="#md4b72f7175" x="188.015997" y="625.173882" style="fill: #e37225; stroke: #e37225"/>
     <use xlink:href="#md4b72f7175" x="158.162422" y="702.487186" style="fill: #e37225; stroke: #e37225"/>
     <use xlink:href="#md4b72f7175" x="339.258447" y="702.577932" style="fill: #e37225; stroke: #e37225"/>
     <use xlink:href="#md4b72f7175" x="428.987393" y="470.644804" style="fill: #e37225; stroke: #e37225"/>
     <use xlink:href="#md4b72f7175" x="399.063818" y="547.955358" style="fill: #e37225; stroke: #e37225"/>
     <use xlink:href="#md4b72f7175" x="369.154132" y="625.26637" style="fill: #e37225; stroke: #e37225"/>
     <use xlink:href="#md4b72f7175" x="520.354359" y="702.679082" style="fill: #e37225; stroke: #e37225"/>
     <use xlink:href="#md4b72f7175" x="490.430896" y="779.989407" style="fill: #e37225; stroke: #e37225"/>
     <use xlink:href="#md4b72f7175" x="458.925191" y="393.334801" style="fill: #e37225; stroke: #e37225"/>
     <use xlink:href="#md4b72f7175" x="610.209308" y="470.751225" style="fill: #e37225; stroke: #e37225"/>
     <use xlink:href="#md4b72f7175" x="580.243621" y="548.059992" style="fill: #e37225; stroke: #e37225"/>
     <use xlink:href="#md4b72f7175" x="550.291935" y="625.369262" style="fill: #e37225; stroke: #e37225"/>
     <use xlink:href="#md4b72f7175" x="701.45005" y="702.790591" style="fill: #e37225; stroke: #e37225"/>
     <use xlink:href="#md4b72f7175" x="671.484586" y="780.099174" style="fill: #e37225; stroke: #e37225"/>
     <use xlink:href="#md4b72f7175" x="488.876988" y="316.025301" style="fill: #e37225; stroke: #e37225"/>
     <use xlink:href="#md4b72f7175" x="518.842897" y="238.716351" style="fill: #e37225; stroke: #e37225"/>
     <use xlink:href="#md4b72f7175" x="548.822917" y="161.407906" style="fill: #e37225; stroke: #e37225"/>
     <use xlink:href="#md4b72f7175" x="730.213278" y="161.521385" style="fill: #e37225; stroke: #e37225"/>
     <use xlink:href="#md4b72f7175" x="911.603306" y="161.645267" style="fill: #e37225; stroke: #e37225"/>
     <use xlink:href="#md4b72f7175" x="277.661054" y="393.237042" style="fill: #e37225; stroke: #e37225"/>
    </g>
   </g>
   <g id="text_1">
    <g clip-path="url(#p27c0e77723)">
     <!-- A05 -->
     <g transform="translate(83.403882 396.460937) scale(0.12 -0.12)">
      <defs>
       <path id="DejaVuSans-Bold-41" d="M 3419 850
L 1538 850
L 1241 0
L 31 0
L 1759 4666
L 3194 4666
L 4922 0
L 3713 0
L 3419 850
z
M 1838 1716
L 3116 1716
L 2478 3572
L 1838 1716
z
" transform="scale(0.015625)"/>
       <path id="DejaVuSans-Bold-30" d="M 2944 2338
Q 2944 3213 2780 3570
Q 2616 3928 2228 3928
Q 1841 3928 1675 3570
Q 1509 3213 1509 2338
Q 1509 1453 1675 1090
Q 1841 728 2228 728
Q 2613 728 2778 1090
Q 2944 1453 2944 2338
z
M 4147 2328
Q 4147 1169 3647 539
Q 3147 -91 2228 -91
Q 1306 -91 806 539
Q 306 1169 306 2328
Q 306 3491 806 4120
Q 1306 4750 2228 4750
Q 3147 4750 3647 4120
Q 4147 3491 4147 2328
z
" transform="scale(0.015625)"/>
       <path id="DejaVuSans-Bold-35" d="M 678 4666
L 3669 4666
L 3669 3781
L 1638 3781
L 1638 3059
Q 1775 3097 1914 3117
Q 2053 3138 2203 3138
Q 3056 3138 3531 2711
Q 4006 2284 4006 1522
Q 4006 766 3489 337
Q 2972 -91 2053 -91
Q 1656 -91 1267 -14
Q 878 63 494 219
L 494 1166
Q 875 947 1217 837
Q 1559 728 1863 728
Q 2300 728 2551 942
Q 2803 1156 2803 1522
Q 2803 1891 2551 2103
Q 2300 2316 1863 2316
Q 1603 2316 1309 2248
Q 1016 2181 678 2041
L 678 4666
z
" transform="scale(0.015625)"/>
      </defs>
      <use xlink:href="#DejaVuSans-Bold-41"/>
      <use xlink:href="#DejaVuSans-Bold-30" x="77.392578"/>
      <use xlink:href="#DejaVuSans-Bold-35" x="146.972656"/>
     </g>
    </g>
   </g>
   <g id="text_2">
    <g clip-path="url(#p27c0e77723)">
     <!-- A04 -->
     <g transform="translate(113.271567 319.147954) scale(0.12 -0.12)">
      <defs>
       <path id="DejaVuSans-Bold-34" d="M 2356 3675
L 1038 1722
L 2356 1722
L 2356 3675
z
M 2156 4666
L 3494 4666
L 3494 1722
L 4159 1722
L 4159 850
L 3494 850
L 3494 0
L 2356 0
L 2356 850
L 288 850
L 288 1881
L 2156 4666
z
" transform="scale(0.015625)"/>
      </defs>
      <use xlink:href="#DejaVuSans-Bold-41"/>
      <use xlink:href="#DejaVuSans-Bold-30" x="77.392578"/>
      <use xlink:href="#DejaVuSans-Bold-34" x="146.972656"/>
     </g>
    </g>
   </g>
   <g id="text_3">
    <g clip-path="url(#p27c0e77723)">
     <!-- A03 -->
     <g transform="translate(143.153142 241.835476) scale(0.12 -0.12)">
      <defs>
       <path id="DejaVuSans-Bold-33" d="M 2981 2516
Q 3453 2394 3698 2092
Q 3944 1791 3944 1325
Q 3944 631 3412 270
Q 2881 -91 1863 -91
Q 1503 -91 1142 -33
Q 781 25 428 141
L 428 1069
Q 766 900 1098 814
Q 1431 728 1753 728
Q 2231 728 2486 893
Q 2741 1059 2741 1369
Q 2741 1688 2480 1852
Q 2219 2016 1709 2016
L 1228 2016
L 1228 2791
L 1734 2791
Q 2188 2791 2409 2933
Q 2631 3075 2631 3366
Q 2631 3634 2415 3781
Q 2200 3928 1806 3928
Q 1516 3928 1219 3862
Q 922 3797 628 3669
L 628 4550
Q 984 4650 1334 4700
Q 1684 4750 2022 4750
Q 2931 4750 3382 4451
Q 3834 4153 3834 3553
Q 3834 3144 3618 2883
Q 3403 2622 2981 2516
z
" transform="scale(0.015625)"/>
      </defs>
      <use xlink:href="#DejaVuSans-Bold-41"/>
      <use xlink:href="#DejaVuSans-Bold-30" x="77.392578"/>
      <use xlink:href="#DejaVuSans-Bold-33" x="146.972656"/>
     </g>
    </g>
   </g>
   <g id="text_4">
    <g clip-path="url(#p27c0e77723)">
     <!-- A02 -->
     <g transform="translate(173.048828 164.523501) scale(0.12 -0.12)">
      <defs>
       <path id="DejaVuSans-Bold-32" d="M 1844 884
L 3897 884
L 3897 0
L 506 0
L 506 884
L 2209 2388
Q 2438 2594 2547 2791
Q 2656 2988 2656 3200
Q 2656 3528 2436 3728
Q 2216 3928 1850 3928
Q 1569 3928 1234 3808
Q 900 3688 519 3450
L 519 4475
Q 925 4609 1322 4679
Q 1719 4750 2100 4750
Q 2938 4750 3402 4381
Q 3866 4013 3866 3353
Q 3866 2972 3669 2642
Q 3472 2313 2841 1759
L 1844 884
z
" transform="scale(0.015625)"/>
      </defs>
      <use xlink:href="#DejaVuSans-Bold-41"/>
      <use xlink:href="#DejaVuSans-Bold-30" x="77.392578"/>
      <use xlink:href="#DejaVuSans-Bold-32" x="146.972656"/>
     </g>
    </g>
   </g>
   <g id="text_5">
    <g clip-path="url(#p27c0e77723)">
     <!-- A01 -->
     <g transform="translate(202.958514 87.212076) scale(0.12 -0.12)">
      <defs>
       <path id="DejaVuSans-Bold-31" d="M 750 831
L 1813 831
L 1813 3847
L 722 3622
L 722 4441
L 1806 4666
L 2950 4666
L 2950 831
L 4013 831
L 4013 0
L 750 0
L 750 831
z
" transform="scale(0.015625)"/>
      </defs>
      <use xlink:href="#DejaVuSans-Bold-41"/>
      <use xlink:href="#DejaVuSans-Bold-30" x="77.392578"/>
      <use xlink:href="#DejaVuSans-Bold-31" x="146.972656"/>
     </g>
    </g>
   </g>
   <g id="text_6">
    <g clip-path="url(#p27c0e77723)">
     <!-- B04 -->
     <g transform="translate(294.64824 319.237051) scale(0.12 -0.12)">
      <defs>
       <path id="DejaVuSans-Bold-42" d="M 2456 2859
Q 2741 2859 2887 2984
Q 3034 3109 3034 3353
Q 3034 3594 2887 3720
Q 2741 3847 2456 3847
L 1791 3847
L 1791 2859
L 2456 2859
z
M 2497 819
Q 2859 819 3042 972
Q 3225 1125 3225 1434
Q 3225 1738 3044 1889
Q 2863 2041 2497 2041
L 1791 2041
L 1791 819
L 2497 819
z
M 3616 2497
Q 4003 2384 4215 2081
Q 4428 1778 4428 1338
Q 4428 663 3972 331
Q 3516 0 2584 0
L 588 0
L 588 4666
L 2394 4666
Q 3366 4666 3802 4372
Q 4238 4078 4238 3431
Q 4238 3091 4078 2852
Q 3919 2613 3616 2497
z
" transform="scale(0.015625)"/>
      </defs>
      <use xlink:href="#DejaVuSans-Bold-42"/>
      <use xlink:href="#DejaVuSans-Bold-30" x="76.220703"/>
      <use xlink:href="#DejaVuSans-Bold-34" x="145.800781"/>
     </g>
    </g>
   </g>
   <g id="text_7">
    <g clip-path="url(#p27c0e77723)">
     <!-- B03 -->
     <g transform="translate(324.592704 241.926314) scale(0.12 -0.12)">
      <use xlink:href="#DejaVuSans-Bold-42"/>
      <use xlink:href="#DejaVuSans-Bold-30" x="76.220703"/>
      <use xlink:href="#DejaVuSans-Bold-33" x="145.800781"/>
     </g>
    </g>
   </g>
   <g id="text_8">
    <g clip-path="url(#p27c0e77723)">
     <!-- B02 -->
     <g transform="translate(354.509834 164.616127) scale(0.12 -0.12)">
      <use xlink:href="#DejaVuSans-Bold-42"/>
      <use xlink:href="#DejaVuSans-Bold-30" x="76.220703"/>
      <use xlink:href="#DejaVuSans-Bold-32" x="145.800781"/>
     </g>
    </g>
   </g>
   <g id="text_9">
    <g clip-path="url(#p27c0e77723)">
     <!-- B01 -->
     <g transform="translate(384.461854 87.306444) scale(0.12 -0.12)">
      <use xlink:href="#DejaVuSans-Bold-42"/>
      <use xlink:href="#DejaVuSans-Bold-30" x="76.220703"/>
      <use xlink:href="#DejaVuSans-Bold-31" x="145.800781"/>
     </g>
    </g>
   </g>
   <g id="text_10">
    <g clip-path="url(#p27c0e77723)">
     <!-- C01 -->
     <g transform="translate(566.064236 87.41126) scale(0.12 -0.12)">
      <defs>
       <path id="DejaVuSans-Bold-43" d="M 4288 256
Q 3956 84 3597 -3
Q 3238 -91 2847 -91
Q 1681 -91 1000 561
Q 319 1213 319 2328
Q 319 3447 1000 4098
Q 1681 4750 2847 4750
Q 3238 4750 3597 4662
Q 3956 4575 4288 4403
L 4288 3438
Q 3953 3666 3628 3772
Q 3303 3878 2944 3878
Q 2300 3878 1931 3465
Q 1563 3053 1563 2328
Q 1563 1606 1931 1193
Q 2300 781 2944 781
Q 3303 781 3628 887
Q 3953 994 4288 1222
L 4288 256
z
" transform="scale(0.015625)"/>
      </defs>
      <use xlink:href="#DejaVuSans-Bold-43"/>
      <use xlink:href="#DejaVuSans-Bold-30" x="73.388672"/>
      <use xlink:href="#DejaVuSans-Bold-31" x="142.96875"/>
     </g>
    </g>
   </g>
   <g id="text_11">
    <g clip-path="url(#p27c0e77723)">
     <!-- D01 -->
     <g transform="translate(746.91932 87.526481) scale(0.12 -0.12)">
      <defs>
       <path id="DejaVuSans-Bold-44" d="M 1791 3756
L 1791 909
L 2222 909
Q 2959 909 3348 1275
Q 3738 1641 3738 2338
Q 3738 3031 3350 3393
Q 2963 3756 2222 3756
L 1791 3756
z
M 588 4666
L 1856 4666
Q 2919 4666 3439 4514
Q 3959 4363 4331 4000
Q 4659 3684 4818 3271
Q 4978 2859 4978 2338
Q 4978 1809 4818 1395
Q 4659 981 4331 666
Q 3956 303 3431 151
Q 2906 0 1856 0
L 588 0
L 588 4666
z
" transform="scale(0.015625)"/>
      </defs>
      <use xlink:href="#DejaVuSans-Bold-44"/>
      <use xlink:href="#DejaVuSans-Bold-30" x="83.007812"/>
      <use xlink:href="#DejaVuSans-Bold-31" x="152.587891"/>
     </g>
    </g>
   </g>
   <g id="text_12">
    <g clip-path="url(#p27c0e77723)">
     <!-- D05 -->
     <g transform="translate(626.858793 396.754213) scale(0.12 -0.12)">
      <use xlink:href="#DejaVuSans-Bold-44"/>
      <use xlink:href="#DejaVuSans-Bold-30" x="83.007812"/>
      <use xlink:href="#DejaVuSans-Bold-35" x="152.587891"/>
     </g>
    </g>
   </g>
   <g id="text_13">
    <g clip-path="url(#p27c0e77723)">
     <!-- E05 -->
     <g transform="translate(809.004673 396.872779) scale(0.12 -0.12)">
      <defs>
       <path id="DejaVuSans-Bold-45" d="M 588 4666
L 3834 4666
L 3834 3756
L 1791 3756
L 1791 2888
L 3713 2888
L 3713 1978
L 1791 1978
L 1791 909
L 3903 909
L 3903 0
L 588 0
L 588 4666
z
" transform="scale(0.015625)"/>
      </defs>
      <use xlink:href="#DejaVuSans-Bold-45"/>
      <use xlink:href="#DejaVuSans-Bold-30" x="68.310547"/>
      <use xlink:href="#DejaVuSans-Bold-35" x="137.890625"/>
     </g>
    </g>
   </g>
   <g id="text_14">
    <g clip-path="url(#p27c0e77723)">
     <!-- E04 -->
     <g transform="translate(839.040694 319.566854) scale(0.12 -0.12)">
      <use xlink:href="#DejaVuSans-Bold-45"/>
      <use xlink:href="#DejaVuSans-Bold-30" x="68.310547"/>
      <use xlink:href="#DejaVuSans-Bold-34" x="137.890625"/>
     </g>
    </g>
   </g>
   <g id="text_15">
    <g clip-path="url(#p27c0e77723)">
     <!-- D04 -->
     <g transform="translate(656.852702 319.446501) scale(0.12 -0.12)">
      <use xlink:href="#DejaVuSans-Bold-44"/>
      <use xlink:href="#DejaVuSans-Bold-30" x="83.007812"/>
      <use xlink:href="#DejaVuSans-Bold-34" x="152.587891"/>
     </g>
    </g>
   </g>
   <g id="text_16">
    <g clip-path="url(#p27c0e77723)">
     <!-- D03 -->
     <g transform="translate(686.860723 242.139293) scale(0.12 -0.12)">
      <use xlink:href="#DejaVuSans-Bold-44"/>
      <use xlink:href="#DejaVuSans-Bold-30" x="83.007812"/>
      <use xlink:href="#DejaVuSans-Bold-33" x="152.587891"/>
     </g>
    </g>
   </g>
   <g id="text_17">
    <g clip-path="url(#p27c0e77723)">
     <!-- E03 -->
     <g transform="translate(869.090937 242.261434) scale(0.12 -0.12)">
      <use xlink:href="#DejaVuSans-Bold-45"/>
      <use xlink:href="#DejaVuSans-Bold-30" x="68.310547"/>
      <use xlink:href="#DejaVuSans-Bold-33" x="137.890625"/>
     </g>
    </g>
   </g>
   <g id="text_18">
    <g clip-path="url(#p27c0e77723)">
     <!-- B06 -->
     <g transform="translate(234.842868 473.860037) scale(0.12 -0.12)">
      <defs>
       <path id="DejaVuSans-Bold-36" d="M 2316 2303
Q 2000 2303 1842 2098
Q 1684 1894 1684 1484
Q 1684 1075 1842 870
Q 2000 666 2316 666
Q 2634 666 2792 870
Q 2950 1075 2950 1484
Q 2950 1894 2792 2098
Q 2634 2303 2316 2303
z
M 3803 4544
L 3803 3681
Q 3506 3822 3243 3889
Q 2981 3956 2731 3956
Q 2194 3956 1894 3657
Q 1594 3359 1544 2772
Q 1750 2925 1990 3001
Q 2231 3078 2516 3078
Q 3231 3078 3670 2659
Q 4109 2241 4109 1563
Q 4109 813 3618 361
Q 3128 -91 2303 -91
Q 1394 -91 895 523
Q 397 1138 397 2266
Q 397 3422 980 4083
Q 1563 4744 2578 4744
Q 2900 4744 3203 4694
Q 3506 4644 3803 4544
z
" transform="scale(0.015625)"/>
      </defs>
      <use xlink:href="#DejaVuSans-Bold-42"/>
      <use xlink:href="#DejaVuSans-Bold-30" x="76.220703"/>
      <use xlink:href="#DejaVuSans-Bold-36" x="145.800781"/>
     </g>
    </g>
   </g>
   <g id="text_19">
    <g clip-path="url(#p27c0e77723)">
     <!-- B07 -->
     <g transform="translate(204.961182 551.172333) scale(0.12 -0.12)">
      <defs>
       <path id="DejaVuSans-Bold-37" d="M 428 4666
L 3944 4666
L 3944 3988
L 2125 0
L 953 0
L 2675 3781
L 428 3781
L 428 4666
z
" transform="scale(0.015625)"/>
      </defs>
      <use xlink:href="#DejaVuSans-Bold-42"/>
      <use xlink:href="#DejaVuSans-Bold-30" x="76.220703"/>
      <use xlink:href="#DejaVuSans-Bold-37" x="145.800781"/>
     </g>
    </g>
   </g>
   <g id="text_20">
    <g clip-path="url(#p27c0e77723)">
     <!-- B08 -->
     <g transform="translate(175.093497 628.485132) scale(0.12 -0.12)">
      <defs>
       <path id="DejaVuSans-Bold-38" d="M 2228 2088
Q 1891 2088 1709 1903
Q 1528 1719 1528 1375
Q 1528 1031 1709 848
Q 1891 666 2228 666
Q 2563 666 2741 848
Q 2919 1031 2919 1375
Q 2919 1722 2741 1905
Q 2563 2088 2228 2088
z
M 1350 2484
Q 925 2613 709 2878
Q 494 3144 494 3541
Q 494 4131 934 4440
Q 1375 4750 2228 4750
Q 3075 4750 3515 4442
Q 3956 4134 3956 3541
Q 3956 3144 3739 2878
Q 3522 2613 3097 2484
Q 3572 2353 3814 2058
Q 4056 1763 4056 1313
Q 4056 619 3595 264
Q 3134 -91 2228 -91
Q 1319 -91 855 264
Q 391 619 391 1313
Q 391 1763 633 2058
Q 875 2353 1350 2484
z
M 1631 3419
Q 1631 3141 1786 2991
Q 1941 2841 2228 2841
Q 2509 2841 2662 2991
Q 2816 3141 2816 3419
Q 2816 3697 2662 3845
Q 2509 3994 2228 3994
Q 1941 3994 1786 3844
Q 1631 3694 1631 3419
z
" transform="scale(0.015625)"/>
      </defs>
      <use xlink:href="#DejaVuSans-Bold-42"/>
      <use xlink:href="#DejaVuSans-Bold-30" x="76.220703"/>
      <use xlink:href="#DejaVuSans-Bold-38" x="145.800781"/>
     </g>
    </g>
   </g>
   <g id="text_21">
    <g clip-path="url(#p27c0e77723)">
     <!-- B09 -->
     <g transform="translate(145.239922 705.798436) scale(0.12 -0.12)">
      <defs>
       <path id="DejaVuSans-Bold-39" d="M 641 103
L 641 966
Q 928 831 1190 764
Q 1453 697 1709 697
Q 2247 697 2547 995
Q 2847 1294 2900 1881
Q 2688 1725 2447 1647
Q 2206 1569 1925 1569
Q 1209 1569 770 1986
Q 331 2403 331 3084
Q 331 3838 820 4291
Q 1309 4744 2131 4744
Q 3044 4744 3544 4128
Q 4044 3513 4044 2388
Q 4044 1231 3459 570
Q 2875 -91 1856 -91
Q 1528 -91 1228 -42
Q 928 6 641 103
z
M 2125 2350
Q 2441 2350 2600 2554
Q 2759 2759 2759 3169
Q 2759 3575 2600 3781
Q 2441 3988 2125 3988
Q 1809 3988 1650 3781
Q 1491 3575 1491 3169
Q 1491 2759 1650 2554
Q 1809 2350 2125 2350
z
" transform="scale(0.015625)"/>
      </defs>
      <use xlink:href="#DejaVuSans-Bold-42"/>
      <use xlink:href="#DejaVuSans-Bold-30" x="76.220703"/>
      <use xlink:href="#DejaVuSans-Bold-39" x="145.800781"/>
     </g>
    </g>
   </g>
   <g id="text_22">
    <g clip-path="url(#p27c0e77723)">
     <!-- C09 -->
     <g transform="translate(326.505634 705.889182) scale(0.12 -0.12)">
      <use xlink:href="#DejaVuSans-Bold-43"/>
      <use xlink:href="#DejaVuSans-Bold-30" x="73.388672"/>
      <use xlink:href="#DejaVuSans-Bold-39" x="142.96875"/>
     </g>
    </g>
   </g>
   <g id="text_23">
    <g clip-path="url(#p27c0e77723)">
     <!-- C06 -->
     <g transform="translate(416.234581 473.956054) scale(0.12 -0.12)">
      <use xlink:href="#DejaVuSans-Bold-43"/>
      <use xlink:href="#DejaVuSans-Bold-30" x="73.388672"/>
      <use xlink:href="#DejaVuSans-Bold-36" x="142.96875"/>
     </g>
    </g>
   </g>
   <g id="text_24">
    <g clip-path="url(#p27c0e77723)">
     <!-- C07 -->
     <g transform="translate(386.311006 551.266608) scale(0.12 -0.12)">
      <use xlink:href="#DejaVuSans-Bold-43"/>
      <use xlink:href="#DejaVuSans-Bold-30" x="73.388672"/>
      <use xlink:href="#DejaVuSans-Bold-37" x="142.96875"/>
     </g>
    </g>
   </g>
   <g id="text_25">
    <g clip-path="url(#p27c0e77723)">
     <!-- C08 -->
     <g transform="translate(356.40132 628.57762) scale(0.12 -0.12)">
      <use xlink:href="#DejaVuSans-Bold-43"/>
      <use xlink:href="#DejaVuSans-Bold-30" x="73.388672"/>
      <use xlink:href="#DejaVuSans-Bold-38" x="142.96875"/>
     </g>
    </g>
   </g>
   <g id="text_26">
    <g clip-path="url(#p27c0e77723)">
     <!-- D09 -->
     <g transform="translate(507.024047 705.990332) scale(0.12 -0.12)">
      <use xlink:href="#DejaVuSans-Bold-44"/>
      <use xlink:href="#DejaVuSans-Bold-30" x="83.007812"/>
      <use xlink:href="#DejaVuSans-Bold-39" x="152.587891"/>
     </g>
    </g>
   </g>
   <g id="text_27">
    <g clip-path="url(#p27c0e77723)">
     <!-- D10 -->
     <g transform="translate(477.100583 783.300657) scale(0.12 -0.12)">
      <use xlink:href="#DejaVuSans-Bold-44"/>
      <use xlink:href="#DejaVuSans-Bold-31" x="83.007812"/>
      <use xlink:href="#DejaVuSans-Bold-30" x="152.587891"/>
     </g>
    </g>
   </g>
   <g id="text_28">
    <g clip-path="url(#p27c0e77723)">
     <!-- C05 -->
     <g transform="translate(446.172378 396.646051) scale(0.12 -0.12)">
      <use xlink:href="#DejaVuSans-Bold-43"/>
      <use xlink:href="#DejaVuSans-Bold-30" x="73.388672"/>
      <use xlink:href="#DejaVuSans-Bold-35" x="142.96875"/>
     </g>
    </g>
   </g>
   <g id="text_29">
    <g clip-path="url(#p27c0e77723)">
     <!-- D06 -->
     <g transform="translate(596.878995 474.062475) scale(0.12 -0.12)">
      <use xlink:href="#DejaVuSans-Bold-44"/>
      <use xlink:href="#DejaVuSans-Bold-30" x="83.007812"/>
      <use xlink:href="#DejaVuSans-Bold-36" x="152.587891"/>
     </g>
    </g>
   </g>
   <g id="text_30">
    <g clip-path="url(#p27c0e77723)">
     <!-- D07 -->
     <g transform="translate(566.913309 551.371242) scale(0.12 -0.12)">
      <use xlink:href="#DejaVuSans-Bold-44"/>
      <use xlink:href="#DejaVuSans-Bold-30" x="83.007812"/>
      <use xlink:href="#DejaVuSans-Bold-37" x="152.587891"/>
     </g>
    </g>
   </g>
   <g id="text_31">
    <g clip-path="url(#p27c0e77723)">
     <!-- D08 -->
     <g transform="translate(536.961622 628.680512) scale(0.12 -0.12)">
      <use xlink:href="#DejaVuSans-Bold-44"/>
      <use xlink:href="#DejaVuSans-Bold-30" x="83.007812"/>
      <use xlink:href="#DejaVuSans-Bold-38" x="152.587891"/>
     </g>
    </g>
   </g>
   <g id="text_32">
    <g clip-path="url(#p27c0e77723)">
     <!-- E09 -->
     <g transform="translate(689.001925 706.101841) scale(0.12 -0.12)">
      <use xlink:href="#DejaVuSans-Bold-45"/>
      <use xlink:href="#DejaVuSans-Bold-30" x="68.310547"/>
      <use xlink:href="#DejaVuSans-Bold-39" x="137.890625"/>
     </g>
    </g>
   </g>
   <g id="text_33">
    <g clip-path="url(#p27c0e77723)">
     <!-- E10 -->
     <g transform="translate(659.036461 783.410424) scale(0.12 -0.12)">
      <use xlink:href="#DejaVuSans-Bold-45"/>
      <use xlink:href="#DejaVuSans-Bold-31" x="68.310547"/>
      <use xlink:href="#DejaVuSans-Bold-30" x="137.890625"/>
     </g>
    </g>
   </g>
   <g id="text_34">
    <g clip-path="url(#p27c0e77723)">
     <!-- C04 -->
     <g transform="translate(476.124176 319.336551) scale(0.12 -0.12)">
      <use xlink:href="#DejaVuSans-Bold-43"/>
      <use xlink:href="#DejaVuSans-Bold-30" x="73.388672"/>
      <use xlink:href="#DejaVuSans-Bold-34" x="142.96875"/>
     </g>
    </g>
   </g>
   <g id="text_35">
    <g clip-path="url(#p27c0e77723)">
     <!-- C03 -->
     <g transform="translate(506.090085 242.027601) scale(0.12 -0.12)">
      <use xlink:href="#DejaVuSans-Bold-43"/>
      <use xlink:href="#DejaVuSans-Bold-30" x="73.388672"/>
      <use xlink:href="#DejaVuSans-Bold-33" x="142.96875"/>
     </g>
    </g>
   </g>
   <g id="text_36">
    <g clip-path="url(#p27c0e77723)">
     <!-- C02 -->
     <g transform="translate(536.070105 164.719156) scale(0.12 -0.12)">
      <use xlink:href="#DejaVuSans-Bold-43"/>
      <use xlink:href="#DejaVuSans-Bold-30" x="73.388672"/>
      <use xlink:href="#DejaVuSans-Bold-32" x="142.96875"/>
     </g>
    </g>
   </g>
   <g id="text_37">
    <g clip-path="url(#p27c0e77723)">
     <!-- D02 -->
     <g transform="translate(716.882966 164.832635) scale(0.12 -0.12)">
      <use xlink:href="#DejaVuSans-Bold-44"/>
      <use xlink:href="#DejaVuSans-Bold-30" x="83.007812"/>
      <use xlink:href="#DejaVuSans-Bold-32" x="152.587891"/>
     </g>
    </g>
   </g>
   <g id="text_38">
    <g clip-path="url(#p27c0e77723)">
     <!-- E02 -->
     <g transform="translate(899.155181 164.956517) scale(0.12 -0.12)">
      <use xlink:href="#DejaVuSans-Bold-45"/>
      <use xlink:href="#DejaVuSans-Bold-30" x="68.310547"/>
      <use xlink:href="#DejaVuSans-Bold-32" x="137.890625"/>
     </g>
    </g>
   </g>
   <g id="text_39">
    <g clip-path="url(#p27c0e77723)">
     <!-- FD OSS -->
     <g transform="translate(253.019804 396.548292) scale(0.12 -0.12)">
      <defs>
       <path id="DejaVuSans-Bold-46" d="M 588 4666
L 3834 4666
L 3834 3756
L 1791 3756
L 1791 2888
L 3713 2888
L 3713 1978
L 1791 1978
L 1791 0
L 588 0
L 588 4666
z
" transform="scale(0.015625)"/>
       <path id="DejaVuSans-Bold-20" transform="scale(0.015625)"/>
       <path id="DejaVuSans-Bold-4f" d="M 2719 3878
Q 2169 3878 1866 3472
Q 1563 3066 1563 2328
Q 1563 1594 1866 1187
Q 2169 781 2719 781
Q 3272 781 3575 1187
Q 3878 1594 3878 2328
Q 3878 3066 3575 3472
Q 3272 3878 2719 3878
z
M 2719 4750
Q 3844 4750 4481 4106
Q 5119 3463 5119 2328
Q 5119 1197 4481 553
Q 3844 -91 2719 -91
Q 1597 -91 958 553
Q 319 1197 319 2328
Q 319 3463 958 4106
Q 1597 4750 2719 4750
z
" transform="scale(0.015625)"/>
       <path id="DejaVuSans-Bold-53" d="M 3834 4519
L 3834 3531
Q 3450 3703 3084 3790
Q 2719 3878 2394 3878
Q 1963 3878 1756 3759
Q 1550 3641 1550 3391
Q 1550 3203 1689 3098
Q 1828 2994 2194 2919
L 2706 2816
Q 3484 2659 3812 2340
Q 4141 2022 4141 1434
Q 4141 663 3683 286
Q 3225 -91 2284 -91
Q 1841 -91 1394 -6
Q 947 78 500 244
L 500 1259
Q 947 1022 1364 901
Q 1781 781 2169 781
Q 2563 781 2772 912
Q 2981 1044 2981 1288
Q 2981 1506 2839 1625
Q 2697 1744 2272 1838
L 1806 1941
Q 1106 2091 782 2419
Q 459 2747 459 3303
Q 459 4000 909 4375
Q 1359 4750 2203 4750
Q 2588 4750 2994 4692
Q 3400 4634 3834 4519
z
" transform="scale(0.015625)"/>
      </defs>
      <use xlink:href="#DejaVuSans-Bold-46"/>
      <use xlink:href="#DejaVuSans-Bold-44" x="68.310547"/>
      <use xlink:href="#DejaVuSans-Bold-20" x="151.318359"/>
      <use xlink:href="#DejaVuSans-Bold-4f" x="186.132812"/>
      <use xlink:href="#DejaVuSans-Bold-53" x="271.142578"/>
      <use xlink:href="#DejaVuSans-Bold-53" x="338.664062"/>
     </g>
    </g>
   </g>
  </g>
 </g>
 <defs>
  <clipPath id="p27c0e77723">
   <rect x="10.8" y="10.8" width="986.4" height="842.4"/>
  </clipPath>
 </defs>
</svg>
