<?xml version="1.0" encoding="utf-8" standalone="no"?>
<!DOCTYPE svg PUBLIC "-//W3C//DTD SVG 1.1//EN"
  "http://www.w3.org/Graphics/SVG/1.1/DTD/svg11.dtd">
<svg xmlns:xlink="http://www.w3.org/1999/xlink" width="1008pt" height="864pt" viewBox="0 0 1008 864" xmlns="http://www.w3.org/2000/svg" version="1.1">
 <metadata>
  <rdf:RDF xmlns:dc="http://purl.org/dc/elements/1.1/" xmlns:cc="http://creativecommons.org/ns#" xmlns:rdf="http://www.w3.org/1999/02/22-rdf-syntax-ns#">
   <cc:Work>
    <dc:type rdf:resource="http://purl.org/dc/dcmitype/StillImage"/>
    <dc:date>2023-03-31T16:49:44.106148</dc:date>
    <dc:format>image/svg+xml</dc:format>
    <dc:creator>
     <cc:Agent>
      <dc:title>Matplotlib v3.6.1, https://matplotlib.org/</dc:title>
     </cc:Agent>
    </dc:creator>
   </cc:Work>
  </rdf:RDF>
 </metadata>
 <defs>
  <style type="text/css">*{stroke-linejoin: round; stroke-linecap: butt}</style>
 </defs>
 <g id="figure_1">
  <g id="patch_1">
   <path d="M 0 864
L 1008 864
L 1008 0
L 0 0
z
" style="fill: #ffffff"/>
  </g>
  <g id="axes_1">
   <g id="patch_2">
    <path d="M 301.591384 248.748403
Q 311.842203 170.617101 321.947582 93.594333
" clip-path="url(#p923ee716ea)" style="fill: none; stroke: #000000; stroke-linecap: round"/>
    <path d="M 319.444236 97.300174
L 321.947582 93.594333
L 323.410248 97.820515
L 319.444236 97.300174
z
" clip-path="url(#p923ee716ea)" style="stroke: #000000; stroke-linecap: round"/>
   </g>
   <g id="patch_3">
    <path d="M 331.880845 83.930111
Q 391.216236 84.130721 449.433599 84.327551
" clip-path="url(#p923ee716ea)" style="fill: none; stroke: #000000; stroke-linecap: round"/>
    <path d="M 445.440384 82.314039
L 449.433599 84.327551
L 445.42686 86.314016
L 445.440384 82.314039
z
" clip-path="url(#p923ee716ea)" style="stroke: #000000; stroke-linecap: round"/>
   </g>
   <g id="patch_4">
    <path d="M 458.084995 92.948021
Q 447.820005 171.077516 437.700656 248.098504
" clip-path="url(#p923ee716ea)" style="fill: none; stroke: #000000; stroke-linecap: round"/>
    <path d="M 440.204673 244.393116
L 437.700656 248.098504
L 436.238756 243.872057
L 440.204673 244.393116
z
" clip-path="url(#p923ee716ea)" style="stroke: #000000; stroke-linecap: round"/>
   </g>
   <g id="patch_5">
    <path d="M 445.086566 257.822294
Q 504.408123 258.031295 562.611653 258.236357
" clip-path="url(#p923ee716ea)" style="fill: none; stroke: #000000; stroke-linecap: round"/>
    <path d="M 558.618724 256.222277
L 562.611653 258.236357
L 558.604631 260.222252
L 558.618724 256.222277
z
" clip-path="url(#p923ee716ea)" style="stroke: #000000; stroke-linecap: round"/>
   </g>
   <g id="patch_6">
    <path d="M 422.309275 431.254436
Q 481.617106 431.461642 539.806911 431.664942
" clip-path="url(#p923ee716ea)" style="fill: none; stroke: #000000; stroke-linecap: round"/>
    <path d="M 535.813923 429.650979
L 539.806911 431.664942
L 535.799948 433.650955
L 535.813923 429.650979
z
" clip-path="url(#p923ee716ea)" style="stroke: #000000; stroke-linecap: round"/>
   </g>
   <g id="patch_7">
    <path d="M 558.239965 431.730829
Q 617.547651 431.948221 675.73731 432.161514
" clip-path="url(#p923ee716ea)" style="fill: none; stroke: #000000; stroke-linecap: round"/>
    <path d="M 671.744668 430.146866
L 675.73731 432.161514
L 671.730006 434.146839
L 671.744668 430.146866
z
" clip-path="url(#p923ee716ea)" style="stroke: #000000; stroke-linecap: round"/>
   </g>
   <g id="patch_8">
    <path d="M 684.38262 440.784466
Q 674.09906 518.911367 663.961405 595.929795
" clip-path="url(#p923ee716ea)" style="fill: none; stroke: #000000; stroke-linecap: round"/>
    <path d="M 666.466304 592.225003
L 663.961405 595.929795
L 662.500512 591.703
L 666.466304 592.225003
z
" clip-path="url(#p923ee716ea)" style="stroke: #000000; stroke-linecap: round"/>
   </g>
   <g id="patch_9">
    <path d="M 671.349262 605.65574
Q 730.635365 605.881448 788.803443 606.102899
" clip-path="url(#p923ee716ea)" style="fill: none; stroke: #000000; stroke-linecap: round"/>
    <path d="M 784.811086 604.087686
L 788.803443 606.102899
L 784.795858 608.087657
L 784.811086 604.087686
z
" clip-path="url(#p923ee716ea)" style="stroke: #000000; stroke-linecap: round"/>
   </g>
   <g id="patch_10">
    <path d="M 399.550964 604.68784
Q 458.837359 604.893224 517.005726 605.094736
" clip-path="url(#p923ee716ea)" style="fill: none; stroke: #000000; stroke-linecap: round"/>
    <path d="M 513.012679 603.080891
L 517.005726 605.094736
L 512.998822 607.080867
L 513.012679 603.080891
z
" clip-path="url(#p923ee716ea)" style="stroke: #000000; stroke-linecap: round"/>
   </g>
   <g id="patch_11">
    <path d="M 525.658352 613.716003
Q 515.393813 691.845313 505.274908 768.866115
" clip-path="url(#p923ee716ea)" style="fill: none; stroke: #000000; stroke-linecap: round"/>
    <path d="M 507.778906 765.160714
L 505.274908 768.866115
L 503.812986 764.639676
L 507.778906 765.160714
z
" clip-path="url(#p923ee716ea)" style="stroke: #000000; stroke-linecap: round"/>
   </g>
   <g id="patch_12">
    <path d="M 512.663146 778.590617
Q 571.935708 778.804391 630.090243 779.014133
" clip-path="url(#p923ee716ea)" style="fill: none; stroke: #000000; stroke-linecap: round"/>
    <path d="M 626.097483 776.999719
L 630.090243 779.014133
L 626.083056 780.999693
L 626.097483 776.999719
z
" clip-path="url(#p923ee716ea)" style="stroke: #000000; stroke-linecap: round"/>
   </g>
   <g id="patch_13">
    <path d="M 648.530754 779.082123
Q 707.803171 779.306036 765.957561 779.525725
" clip-path="url(#p923ee716ea)" style="fill: none; stroke: #000000; stroke-linecap: round"/>
    <path d="M 761.965145 777.510629
L 765.957561 779.525725
L 761.950034 781.5106
L 761.965145 777.510629
z
" clip-path="url(#p923ee716ea)" style="stroke: #000000; stroke-linecap: round"/>
   </g>
   <g id="patch_14">
    <path d="M 784.398028 779.59687
Q 843.670299 779.830922 901.824545 780.06056
" clip-path="url(#p923ee716ea)" style="fill: none; stroke: #000000; stroke-linecap: round"/>
    <path d="M 897.832474 778.04478
L 901.824545 780.06056
L 897.816679 782.044749
L 897.832474 778.04478
z
" clip-path="url(#p923ee716ea)" style="stroke: #000000; stroke-linecap: round"/>
   </g>
   <g id="patch_15">
    <path d="M 246.323842 604.183114
Q 187.037192 603.997963 128.868571 603.816304
" clip-path="url(#p923ee716ea)" style="fill: none; stroke: #000000; stroke-linecap: round"/>
    <path d="M 132.862306 605.828786
L 128.868571 603.816304
L 132.874798 601.828805
L 132.862306 605.828786
z
" clip-path="url(#p923ee716ea)" style="stroke: #000000; stroke-linecap: round"/>
   </g>
   <g id="patch_16">
    <path d="M 117.964166 612.373748
Q 107.742028 690.508571 97.664923 767.534807
" clip-path="url(#p923ee716ea)" style="fill: none; stroke: #000000; stroke-linecap: round"/>
    <path d="M 100.16691 763.828048
L 97.664923 767.534807
L 96.200708 763.309162
L 100.16691 763.828048
z
" clip-path="url(#p923ee716ea)" style="stroke: #000000; stroke-linecap: round"/>
   </g>
   <g id="patch_17">
    <path d="M 105.05848 777.255548
Q 164.331443 777.438905 222.486377 777.618803
" clip-path="url(#p923ee716ea)" style="fill: none; stroke: #000000; stroke-linecap: round"/>
    <path d="M 218.492583 775.606439
L 222.486377 777.618803
L 218.480209 779.60642
L 218.492583 775.606439
z
" clip-path="url(#p923ee716ea)" style="stroke: #000000; stroke-linecap: round"/>
   </g>
   <g id="patch_18">
    <path d="M 240.927006 777.67733
Q 300.199823 777.870826 358.354612 778.060672
" clip-path="url(#p923ee716ea)" style="fill: none; stroke: #000000; stroke-linecap: round"/>
    <path d="M 354.361162 776.047624
L 358.354612 778.060672
L 354.348104 780.047603
L 354.361162 776.047624
z
" clip-path="url(#p923ee716ea)" style="stroke: #000000; stroke-linecap: round"/>
   </g>
   <g id="patch_19">
    <path d="M 278.846937 422.184854
Q 289.092907 344.05295 299.193506 267.029588
" clip-path="url(#p923ee716ea)" style="fill: none; stroke: #000000; stroke-linecap: round"/>
    <path d="M 296.69039 270.735585
L 299.193506 267.029588
L 300.656433 271.255679
L 296.69039 270.735585
z
" clip-path="url(#p923ee716ea)" style="stroke: #000000; stroke-linecap: round"/>
   </g>
   <g id="patch_20">
    <path d="M 286.378251 430.80129
Q 345.686228 430.998356 403.876178 431.191707
" clip-path="url(#p923ee716ea)" style="fill: none; stroke: #000000; stroke-linecap: round"/>
    <path d="M 399.882845 429.178427
L 403.876178 431.191707
L 399.869554 433.178405
L 399.882845 429.178427
z
" clip-path="url(#p923ee716ea)" style="stroke: #000000; stroke-linecap: round"/>
   </g>
   <g id="patch_21">
    <path d="M 282.443529 438.029242
Q 334.30326 517.714043 385.553142 596.461783
" clip-path="url(#p923ee716ea)" style="fill: none; stroke: #000000; stroke-linecap: round"/>
    <path d="M 385.047544 592.01832
L 385.553142 596.461783
L 381.695012 594.200184
L 385.047544 592.01832
z
" clip-path="url(#p923ee716ea)" style="stroke: #000000; stroke-linecap: round"/>
   </g>
   <g id="patch_22">
    <path d="M 276.595151 439.360249
Q 266.35403 517.492662 256.258212 594.516524
" clip-path="url(#p923ee716ea)" style="fill: none; stroke: #000000; stroke-linecap: round"/>
    <path d="M 258.761099 590.810373
L 256.258212 594.516524
L 254.795023 590.290524
L 258.761099 590.810373
z
" clip-path="url(#p923ee716ea)" style="stroke: #000000; stroke-linecap: round"/>
   </g>
   <g id="patch_23">
    <path d="M 277.720778 361.152689
C 305.96498 361.152689 305.96498 430.772523 277.720778 430.772523
C 249.476575 430.772523 249.476575 361.152689 276.602744 361.152689
" clip-path="url(#p923ee716ea)" style="fill: none; stroke: #000000; stroke-linecap: round"/>
    <path d="M 272.602744 359.152689
L 276.602744 361.152689
L 272.602744 363.152689
L 272.602744 359.152689
z
" clip-path="url(#p923ee716ea)" style="stroke: #000000; stroke-linecap: round"/>
   </g>
   <g id="PathCollection_1">
    <defs>
     <path id="m3fbe34319e" d="M 0 8.660254
C 2.296726 8.660254 4.499694 7.747755 6.123724 6.123724
C 7.747755 4.499694 8.660254 2.296726 8.660254 0
C 8.660254 -2.296726 7.747755 -4.499694 6.123724 -6.123724
C 4.499694 -7.747755 2.296726 -8.660254 0 -8.660254
C -2.296726 -8.660254 -4.499694 -7.747755 -6.123724 -6.123724
C -7.747755 -4.499694 -8.660254 -2.296726 -8.660254 0
C -8.660254 2.296726 -7.747755 4.499694 -6.123724 6.123724
C -4.499694 7.747755 -2.296726 8.660254 0 8.660254
z
" style="stroke: #e37225"/>
    </defs>
    <g clip-path="url(#p923ee716ea)">
     <use xlink:href="#m3fbe34319e" x="300.464692" y="257.336006" style="fill: #e37225; stroke: #e37225"/>
     <use xlink:href="#m3fbe34319e" x="323.219369" y="83.900826" style="fill: #e37225; stroke: #e37225"/>
     <use xlink:href="#m3fbe34319e" x="459.213246" y="84.360616" style="fill: #e37225; stroke: #e37225"/>
     <use xlink:href="#m3fbe34319e" x="436.42711" y="257.791785" style="fill: #e37225; stroke: #e37225"/>
     <use xlink:href="#m3fbe34319e" x="572.389279" y="258.270806" style="fill: #e37225; stroke: #e37225"/>
     <use xlink:href="#m3fbe34319e" x="413.651823" y="431.224189" style="fill: #e37225; stroke: #e37225"/>
     <use xlink:href="#m3fbe34319e" x="549.582534" y="431.699095" style="fill: #e37225; stroke: #e37225"/>
     <use xlink:href="#m3fbe34319e" x="685.512911" y="432.197347" style="fill: #e37225; stroke: #e37225"/>
     <use xlink:href="#m3fbe34319e" x="662.685556" y="605.622757" style="fill: #e37225; stroke: #e37225"/>
     <use xlink:href="#m3fbe34319e" x="798.584225" y="606.140136" style="fill: #e37225; stroke: #e37225"/>
     <use xlink:href="#m3fbe34319e" x="390.887215" y="604.657826" style="fill: #e37225; stroke: #e37225"/>
     <use xlink:href="#m3fbe34319e" x="526.786552" y="605.128619" style="fill: #e37225; stroke: #e37225"/>
     <use xlink:href="#m3fbe34319e" x="504.001419" y="778.559377" style="fill: #e37225; stroke: #e37225"/>
     <use xlink:href="#m3fbe34319e" x="639.869048" y="779.049401" style="fill: #e37225; stroke: #e37225"/>
     <use xlink:href="#m3fbe34319e" x="775.736344" y="779.562667" style="fill: #e37225; stroke: #e37225"/>
     <use xlink:href="#m3fbe34319e" x="911.603306" y="780.099174" style="fill: #e37225; stroke: #e37225"/>
     <use xlink:href="#m3fbe34319e" x="254.987628" y="604.210171" style="fill: #e37225; stroke: #e37225"/>
     <use xlink:href="#m3fbe34319e" x="119.087706" y="603.785758" style="fill: #e37225; stroke: #e37225"/>
     <use xlink:href="#m3fbe34319e" x="96.396694" y="777.228754" style="fill: #e37225; stroke: #e37225"/>
     <use xlink:href="#m3fbe34319e" x="232.265242" y="777.649054" style="fill: #e37225; stroke: #e37225"/>
     <use xlink:href="#m3fbe34319e" x="368.133455" y="778.092595" style="fill: #e37225; stroke: #e37225"/>
     <use xlink:href="#m3fbe34319e" x="277.720778" y="430.772523" style="fill: #e37225; stroke: #e37225"/>
    </g>
   </g>
   <g id="text_1">
    <g clip-path="url(#p923ee716ea)">
     <!-- M10 -->
     <g transform="translate(286.144379 260.647256) scale(0.12 -0.12)">
      <defs>
       <path id="DejaVuSans-Bold-4d" d="M 588 4666
L 2119 4666
L 3181 2169
L 4250 4666
L 5778 4666
L 5778 0
L 4641 0
L 4641 3413
L 3566 897
L 2803 897
L 1728 3413
L 1728 0
L 588 0
L 588 4666
z
" transform="scale(0.015625)"/>
       <path id="DejaVuSans-Bold-31" d="M 750 831
L 1813 831
L 1813 3847
L 722 3622
L 722 4441
L 1806 4666
L 2950 4666
L 2950 831
L 4013 831
L 4013 0
L 750 0
L 750 831
z
" transform="scale(0.015625)"/>
       <path id="DejaVuSans-Bold-30" d="M 2944 2338
Q 2944 3213 2780 3570
Q 2616 3928 2228 3928
Q 1841 3928 1675 3570
Q 1509 3213 1509 2338
Q 1509 1453 1675 1090
Q 1841 728 2228 728
Q 2613 728 2778 1090
Q 2944 1453 2944 2338
z
M 4147 2328
Q 4147 1169 3647 539
Q 3147 -91 2228 -91
Q 1306 -91 806 539
Q 306 1169 306 2328
Q 306 3491 806 4120
Q 1306 4750 2228 4750
Q 3147 4750 3647 4120
Q 4147 3491 4147 2328
z
" transform="scale(0.015625)"/>
      </defs>
      <use xlink:href="#DejaVuSans-Bold-4d"/>
      <use xlink:href="#DejaVuSans-Bold-31" x="99.511719"/>
      <use xlink:href="#DejaVuSans-Bold-30" x="169.091797"/>
     </g>
    </g>
   </g>
   <g id="text_2">
    <g clip-path="url(#p923ee716ea)">
     <!-- M09 -->
     <g transform="translate(308.899057 87.212076) scale(0.12 -0.12)">
      <defs>
       <path id="DejaVuSans-Bold-39" d="M 641 103
L 641 966
Q 928 831 1190 764
Q 1453 697 1709 697
Q 2247 697 2547 995
Q 2847 1294 2900 1881
Q 2688 1725 2447 1647
Q 2206 1569 1925 1569
Q 1209 1569 770 1986
Q 331 2403 331 3084
Q 331 3838 820 4291
Q 1309 4744 2131 4744
Q 3044 4744 3544 4128
Q 4044 3513 4044 2388
Q 4044 1231 3459 570
Q 2875 -91 1856 -91
Q 1528 -91 1228 -42
Q 928 6 641 103
z
M 2125 2350
Q 2441 2350 2600 2554
Q 2759 2759 2759 3169
Q 2759 3575 2600 3781
Q 2441 3988 2125 3988
Q 1809 3988 1650 3781
Q 1491 3575 1491 3169
Q 1491 2759 1650 2554
Q 1809 2350 2125 2350
z
" transform="scale(0.015625)"/>
      </defs>
      <use xlink:href="#DejaVuSans-Bold-4d"/>
      <use xlink:href="#DejaVuSans-Bold-30" x="99.511719"/>
      <use xlink:href="#DejaVuSans-Bold-39" x="169.091797"/>
     </g>
    </g>
   </g>
   <g id="text_3">
    <g clip-path="url(#p923ee716ea)">
     <!-- N09 -->
     <g transform="translate(445.842621 87.671866) scale(0.12 -0.12)">
      <defs>
       <path id="DejaVuSans-Bold-4e" d="M 588 4666
L 1931 4666
L 3628 1466
L 3628 4666
L 4769 4666
L 4769 0
L 3425 0
L 1728 3200
L 1728 0
L 588 0
L 588 4666
z
" transform="scale(0.015625)"/>
      </defs>
      <use xlink:href="#DejaVuSans-Bold-4e"/>
      <use xlink:href="#DejaVuSans-Bold-30" x="83.691406"/>
      <use xlink:href="#DejaVuSans-Bold-39" x="153.271484"/>
     </g>
    </g>
   </g>
   <g id="text_4">
    <g clip-path="url(#p923ee716ea)">
     <!-- N10 -->
     <g transform="translate(423.056485 261.103035) scale(0.12 -0.12)">
      <use xlink:href="#DejaVuSans-Bold-4e"/>
      <use xlink:href="#DejaVuSans-Bold-31" x="83.691406"/>
      <use xlink:href="#DejaVuSans-Bold-30" x="153.271484"/>
     </g>
    </g>
   </g>
   <g id="text_5">
    <g clip-path="url(#p923ee716ea)">
     <!-- O10 -->
     <g transform="translate(558.938966 261.582056) scale(0.12 -0.12)">
      <defs>
       <path id="DejaVuSans-Bold-4f" d="M 2719 3878
Q 2169 3878 1866 3472
Q 1563 3066 1563 2328
Q 1563 1594 1866 1187
Q 2169 781 2719 781
Q 3272 781 3575 1187
Q 3878 1594 3878 2328
Q 3878 3066 3575 3472
Q 3272 3878 2719 3878
z
M 2719 4750
Q 3844 4750 4481 4106
Q 5119 3463 5119 2328
Q 5119 1197 4481 553
Q 3844 -91 2719 -91
Q 1597 -91 958 553
Q 319 1197 319 2328
Q 319 3463 958 4106
Q 1597 4750 2719 4750
z
" transform="scale(0.015625)"/>
      </defs>
      <use xlink:href="#DejaVuSans-Bold-4f"/>
      <use xlink:href="#DejaVuSans-Bold-31" x="85.009766"/>
      <use xlink:href="#DejaVuSans-Bold-30" x="154.589844"/>
     </g>
    </g>
   </g>
   <g id="text_6">
    <g clip-path="url(#p923ee716ea)">
     <!-- N11 -->
     <g transform="translate(400.281198 434.535439) scale(0.12 -0.12)">
      <use xlink:href="#DejaVuSans-Bold-4e"/>
      <use xlink:href="#DejaVuSans-Bold-31" x="83.691406"/>
      <use xlink:href="#DejaVuSans-Bold-31" x="153.271484"/>
     </g>
    </g>
   </g>
   <g id="text_7">
    <g clip-path="url(#p923ee716ea)">
     <!-- O11 -->
     <g transform="translate(536.132221 435.010345) scale(0.12 -0.12)">
      <use xlink:href="#DejaVuSans-Bold-4f"/>
      <use xlink:href="#DejaVuSans-Bold-31" x="85.009766"/>
      <use xlink:href="#DejaVuSans-Bold-31" x="154.589844"/>
     </g>
    </g>
   </g>
   <g id="text_8">
    <g clip-path="url(#p923ee716ea)">
     <!-- P11 -->
     <g transform="translate(672.765723 435.508597) scale(0.12 -0.12)">
      <defs>
       <path id="DejaVuSans-Bold-50" d="M 588 4666
L 2584 4666
Q 3475 4666 3951 4270
Q 4428 3875 4428 3144
Q 4428 2409 3951 2014
Q 3475 1619 2584 1619
L 1791 1619
L 1791 0
L 588 0
L 588 4666
z
M 1791 3794
L 1791 2491
L 2456 2491
Q 2806 2491 2997 2661
Q 3188 2831 3188 3144
Q 3188 3456 2997 3625
Q 2806 3794 2456 3794
L 1791 3794
z
" transform="scale(0.015625)"/>
      </defs>
      <use xlink:href="#DejaVuSans-Bold-50"/>
      <use xlink:href="#DejaVuSans-Bold-31" x="73.291016"/>
      <use xlink:href="#DejaVuSans-Bold-31" x="142.871094"/>
     </g>
    </g>
   </g>
   <g id="text_9">
    <g clip-path="url(#p923ee716ea)">
     <!-- P12 -->
     <g transform="translate(649.938368 608.934007) scale(0.12 -0.12)">
      <defs>
       <path id="DejaVuSans-Bold-32" d="M 1844 884
L 3897 884
L 3897 0
L 506 0
L 506 884
L 2209 2388
Q 2438 2594 2547 2791
Q 2656 2988 2656 3200
Q 2656 3528 2436 3728
Q 2216 3928 1850 3928
Q 1569 3928 1234 3808
Q 900 3688 519 3450
L 519 4475
Q 925 4609 1322 4679
Q 1719 4750 2100 4750
Q 2938 4750 3402 4381
Q 3866 4013 3866 3353
Q 3866 2972 3669 2642
Q 3472 2313 2841 1759
L 1844 884
z
" transform="scale(0.015625)"/>
      </defs>
      <use xlink:href="#DejaVuSans-Bold-50"/>
      <use xlink:href="#DejaVuSans-Bold-31" x="73.291016"/>
      <use xlink:href="#DejaVuSans-Bold-32" x="142.871094"/>
     </g>
    </g>
   </g>
   <g id="text_10">
    <g clip-path="url(#p923ee716ea)">
     <!-- Q12 -->
     <g transform="translate(785.133913 609.451386) scale(0.12 -0.12)">
      <defs>
       <path id="DejaVuSans-Bold-51" d="M 2847 -84
L 2753 -84
Q 1600 -84 959 553
Q 319 1191 319 2328
Q 319 3463 958 4106
Q 1597 4750 2719 4750
Q 3853 4750 4486 4112
Q 5119 3475 5119 2328
Q 5119 1541 4783 972
Q 4447 403 3816 116
L 4756 -934
L 3609 -934
L 2847 -84
z
M 2719 3878
Q 2169 3878 1866 3472
Q 1563 3066 1563 2328
Q 1563 1578 1859 1179
Q 2156 781 2719 781
Q 3272 781 3575 1187
Q 3878 1594 3878 2328
Q 3878 3066 3575 3472
Q 3272 3878 2719 3878
z
" transform="scale(0.015625)"/>
      </defs>
      <use xlink:href="#DejaVuSans-Bold-51"/>
      <use xlink:href="#DejaVuSans-Bold-31" x="85.009766"/>
      <use xlink:href="#DejaVuSans-Bold-32" x="154.589844"/>
     </g>
    </g>
   </g>
   <g id="text_11">
    <g clip-path="url(#p923ee716ea)">
     <!-- N12 -->
     <g transform="translate(377.51659 607.969076) scale(0.12 -0.12)">
      <use xlink:href="#DejaVuSans-Bold-4e"/>
      <use xlink:href="#DejaVuSans-Bold-31" x="83.691406"/>
      <use xlink:href="#DejaVuSans-Bold-32" x="153.271484"/>
     </g>
    </g>
   </g>
   <g id="text_12">
    <g clip-path="url(#p923ee716ea)">
     <!-- O12 -->
     <g transform="translate(513.33624 608.439869) scale(0.12 -0.12)">
      <use xlink:href="#DejaVuSans-Bold-4f"/>
      <use xlink:href="#DejaVuSans-Bold-31" x="85.009766"/>
      <use xlink:href="#DejaVuSans-Bold-32" x="154.589844"/>
     </g>
    </g>
   </g>
   <g id="text_13">
    <g clip-path="url(#p923ee716ea)">
     <!-- O13 -->
     <g transform="translate(490.551106 781.870627) scale(0.12 -0.12)">
      <defs>
       <path id="DejaVuSans-Bold-33" d="M 2981 2516
Q 3453 2394 3698 2092
Q 3944 1791 3944 1325
Q 3944 631 3412 270
Q 2881 -91 1863 -91
Q 1503 -91 1142 -33
Q 781 25 428 141
L 428 1069
Q 766 900 1098 814
Q 1431 728 1753 728
Q 2231 728 2486 893
Q 2741 1059 2741 1369
Q 2741 1688 2480 1852
Q 2219 2016 1709 2016
L 1228 2016
L 1228 2791
L 1734 2791
Q 2188 2791 2409 2933
Q 2631 3075 2631 3366
Q 2631 3634 2415 3781
Q 2200 3928 1806 3928
Q 1516 3928 1219 3862
Q 922 3797 628 3669
L 628 4550
Q 984 4650 1334 4700
Q 1684 4750 2022 4750
Q 2931 4750 3382 4451
Q 3834 4153 3834 3553
Q 3834 3144 3618 2883
Q 3403 2622 2981 2516
z
" transform="scale(0.015625)"/>
      </defs>
      <use xlink:href="#DejaVuSans-Bold-4f"/>
      <use xlink:href="#DejaVuSans-Bold-31" x="85.009766"/>
      <use xlink:href="#DejaVuSans-Bold-33" x="154.589844"/>
     </g>
    </g>
   </g>
   <g id="text_14">
    <g clip-path="url(#p923ee716ea)">
     <!-- P13 -->
     <g transform="translate(627.121861 782.360651) scale(0.12 -0.12)">
      <use xlink:href="#DejaVuSans-Bold-50"/>
      <use xlink:href="#DejaVuSans-Bold-31" x="73.291016"/>
      <use xlink:href="#DejaVuSans-Bold-33" x="142.871094"/>
     </g>
    </g>
   </g>
   <g id="text_15">
    <g clip-path="url(#p923ee716ea)">
     <!-- Q13 -->
     <g transform="translate(762.286031 782.873917) scale(0.12 -0.12)">
      <use xlink:href="#DejaVuSans-Bold-51"/>
      <use xlink:href="#DejaVuSans-Bold-31" x="85.009766"/>
      <use xlink:href="#DejaVuSans-Bold-33" x="154.589844"/>
     </g>
    </g>
   </g>
   <g id="text_16">
    <g clip-path="url(#p923ee716ea)">
     <!-- R13 -->
     <g transform="translate(898.633931 783.410424) scale(0.12 -0.12)">
      <defs>
       <path id="DejaVuSans-Bold-52" d="M 2297 2597
Q 2675 2597 2839 2737
Q 3003 2878 3003 3200
Q 3003 3519 2839 3656
Q 2675 3794 2297 3794
L 1791 3794
L 1791 2597
L 2297 2597
z
M 1791 1766
L 1791 0
L 588 0
L 588 4666
L 2425 4666
Q 3347 4666 3776 4356
Q 4206 4047 4206 3378
Q 4206 2916 3982 2619
Q 3759 2322 3309 2181
Q 3556 2125 3751 1926
Q 3947 1728 4147 1325
L 4800 0
L 3519 0
L 2950 1159
Q 2778 1509 2601 1637
Q 2425 1766 2131 1766
L 1791 1766
z
" transform="scale(0.015625)"/>
      </defs>
      <use xlink:href="#DejaVuSans-Bold-52"/>
      <use xlink:href="#DejaVuSans-Bold-31" x="77.001953"/>
      <use xlink:href="#DejaVuSans-Bold-33" x="146.582031"/>
     </g>
    </g>
   </g>
   <g id="text_17">
    <g clip-path="url(#p923ee716ea)">
     <!-- M12 -->
     <g transform="translate(240.667315 607.521421) scale(0.12 -0.12)">
      <use xlink:href="#DejaVuSans-Bold-4d"/>
      <use xlink:href="#DejaVuSans-Bold-31" x="99.511719"/>
      <use xlink:href="#DejaVuSans-Bold-32" x="169.091797"/>
     </g>
    </g>
   </g>
   <g id="text_18">
    <g clip-path="url(#p923ee716ea)">
     <!-- L12 -->
     <g transform="translate(106.915206 607.097008) scale(0.12 -0.12)">
      <defs>
       <path id="DejaVuSans-Bold-4c" d="M 588 4666
L 1791 4666
L 1791 909
L 3903 909
L 3903 0
L 588 0
L 588 4666
z
" transform="scale(0.015625)"/>
      </defs>
      <use xlink:href="#DejaVuSans-Bold-4c"/>
      <use xlink:href="#DejaVuSans-Bold-31" x="63.720703"/>
      <use xlink:href="#DejaVuSans-Bold-32" x="133.300781"/>
     </g>
    </g>
   </g>
   <g id="text_19">
    <g clip-path="url(#p923ee716ea)">
     <!-- L13 -->
     <g transform="translate(84.224194 780.540004) scale(0.12 -0.12)">
      <use xlink:href="#DejaVuSans-Bold-4c"/>
      <use xlink:href="#DejaVuSans-Bold-31" x="63.720703"/>
      <use xlink:href="#DejaVuSans-Bold-33" x="133.300781"/>
     </g>
    </g>
   </g>
   <g id="text_20">
    <g clip-path="url(#p923ee716ea)">
     <!-- M13 -->
     <g transform="translate(217.944929 780.960304) scale(0.12 -0.12)">
      <use xlink:href="#DejaVuSans-Bold-4d"/>
      <use xlink:href="#DejaVuSans-Bold-31" x="99.511719"/>
      <use xlink:href="#DejaVuSans-Bold-33" x="169.091797"/>
     </g>
    </g>
   </g>
   <g id="text_21">
    <g clip-path="url(#p923ee716ea)">
     <!-- N13 -->
     <g transform="translate(354.76283 781.403845) scale(0.12 -0.12)">
      <use xlink:href="#DejaVuSans-Bold-4e"/>
      <use xlink:href="#DejaVuSans-Bold-31" x="83.691406"/>
      <use xlink:href="#DejaVuSans-Bold-33" x="153.271484"/>
     </g>
    </g>
   </g>
   <g id="text_22">
    <g clip-path="url(#p923ee716ea)">
     <!-- MarW OSS -->
     <g transform="translate(242.562653 434.083773) scale(0.12 -0.12)">
      <defs>
       <path id="DejaVuSans-Bold-61" d="M 2106 1575
Q 1756 1575 1579 1456
Q 1403 1338 1403 1106
Q 1403 894 1545 773
Q 1688 653 1941 653
Q 2256 653 2472 879
Q 2688 1106 2688 1447
L 2688 1575
L 2106 1575
z
M 3816 1997
L 3816 0
L 2688 0
L 2688 519
Q 2463 200 2181 54
Q 1900 -91 1497 -91
Q 953 -91 614 226
Q 275 544 275 1050
Q 275 1666 698 1953
Q 1122 2241 2028 2241
L 2688 2241
L 2688 2328
Q 2688 2594 2478 2717
Q 2269 2841 1825 2841
Q 1466 2841 1156 2769
Q 847 2697 581 2553
L 581 3406
Q 941 3494 1303 3539
Q 1666 3584 2028 3584
Q 2975 3584 3395 3211
Q 3816 2838 3816 1997
z
" transform="scale(0.015625)"/>
       <path id="DejaVuSans-Bold-72" d="M 3138 2547
Q 2991 2616 2845 2648
Q 2700 2681 2553 2681
Q 2122 2681 1889 2404
Q 1656 2128 1656 1613
L 1656 0
L 538 0
L 538 3500
L 1656 3500
L 1656 2925
Q 1872 3269 2151 3426
Q 2431 3584 2822 3584
Q 2878 3584 2943 3579
Q 3009 3575 3134 3559
L 3138 2547
z
" transform="scale(0.015625)"/>
       <path id="DejaVuSans-Bold-57" d="M 191 4666
L 1344 4666
L 2150 1275
L 2950 4666
L 4109 4666
L 4909 1275
L 5716 4666
L 6859 4666
L 5759 0
L 4372 0
L 3525 3547
L 2688 0
L 1300 0
L 191 4666
z
" transform="scale(0.015625)"/>
       <path id="DejaVuSans-Bold-20" transform="scale(0.015625)"/>
       <path id="DejaVuSans-Bold-53" d="M 3834 4519
L 3834 3531
Q 3450 3703 3084 3790
Q 2719 3878 2394 3878
Q 1963 3878 1756 3759
Q 1550 3641 1550 3391
Q 1550 3203 1689 3098
Q 1828 2994 2194 2919
L 2706 2816
Q 3484 2659 3812 2340
Q 4141 2022 4141 1434
Q 4141 663 3683 286
Q 3225 -91 2284 -91
Q 1841 -91 1394 -6
Q 947 78 500 244
L 500 1259
Q 947 1022 1364 901
Q 1781 781 2169 781
Q 2563 781 2772 912
Q 2981 1044 2981 1288
Q 2981 1506 2839 1625
Q 2697 1744 2272 1838
L 1806 1941
Q 1106 2091 782 2419
Q 459 2747 459 3303
Q 459 4000 909 4375
Q 1359 4750 2203 4750
Q 2588 4750 2994 4692
Q 3400 4634 3834 4519
z
" transform="scale(0.015625)"/>
      </defs>
      <use xlink:href="#DejaVuSans-Bold-4d"/>
      <use xlink:href="#DejaVuSans-Bold-61" x="99.511719"/>
      <use xlink:href="#DejaVuSans-Bold-72" x="166.992188"/>
      <use xlink:href="#DejaVuSans-Bold-57" x="216.308594"/>
      <use xlink:href="#DejaVuSans-Bold-20" x="326.611328"/>
      <use xlink:href="#DejaVuSans-Bold-4f" x="361.425781"/>
      <use xlink:href="#DejaVuSans-Bold-53" x="446.435547"/>
      <use xlink:href="#DejaVuSans-Bold-53" x="513.957031"/>
     </g>
    </g>
   </g>
  </g>
 </g>
 <defs>
  <clipPath id="p923ee716ea">
   <rect x="10.8" y="10.8" width="986.4" height="842.4"/>
  </clipPath>
 </defs>
</svg>
