<?xml version="1.0" encoding="utf-8" standalone="no"?>
<!DOCTYPE svg PUBLIC "-//W3C//DTD SVG 1.1//EN"
  "http://www.w3.org/Graphics/SVG/1.1/DTD/svg11.dtd">
<svg xmlns:xlink="http://www.w3.org/1999/xlink" width="504pt" height="360pt" viewBox="0 0 504 360" xmlns="http://www.w3.org/2000/svg" version="1.1">
 <metadata>
  <rdf:RDF xmlns:dc="http://purl.org/dc/elements/1.1/" xmlns:cc="http://creativecommons.org/ns#" xmlns:rdf="http://www.w3.org/1999/02/22-rdf-syntax-ns#">
   <cc:Work>
    <dc:type rdf:resource="http://purl.org/dc/dcmitype/StillImage"/>
    <dc:date>2023-04-17T17:55:59.915697</dc:date>
    <dc:format>image/svg+xml</dc:format>
    <dc:creator>
     <cc:Agent>
      <dc:title>Matplotlib v3.7.1, https://matplotlib.org/</dc:title>
     </cc:Agent>
    </dc:creator>
   </cc:Work>
  </rdf:RDF>
 </metadata>
 <defs>
  <style type="text/css">*{stroke-linejoin: round; stroke-linecap: butt}</style>
 </defs>
 <g id="figure_1">
  <g id="patch_1">
   <path d="M 0 360
L 504 360
L 504 0
L 0 0
z
" style="fill: #ffffff"/>
  </g>
  <g id="axes_1">
   <g id="patch_2">
    <path d="M 60.635 318.04
L 483.6375 318.04
L 483.6375 14.76
L 60.635 14.76
z
" style="fill: #ffffff"/>
   </g>
   <g id="matplotlib.axis_1">
    <g id="xtick_1">
     <g id="line2d_1">
      <path d="M 60.635 318.04
L 60.635 14.76
" clip-path="url(#p214891e866)" style="fill: none; stroke: #b0b0b0; stroke-width: 0.8; stroke-linecap: square"/>
     </g>
     <g id="line2d_2">
      <defs>
       <path id="mdb821ee5d7" d="M 0 0
L 0 3.5
" style="stroke: #000000; stroke-width: 0.8"/>
      </defs>
      <g>
       <use xlink:href="#mdb821ee5d7" x="60.635" y="318.04" style="stroke: #000000; stroke-width: 0.8"/>
      </g>
     </g>
     <g id="text_1">
      <!-- 0 -->
      <g transform="translate(57.45375 332.638438) scale(0.1 -0.1)">
       <defs>
        <path id="DejaVuSans-30" d="M 2034 4250
Q 1547 4250 1301 3770
Q 1056 3291 1056 2328
Q 1056 1369 1301 889
Q 1547 409 2034 409
Q 2525 409 2770 889
Q 3016 1369 3016 2328
Q 3016 3291 2770 3770
Q 2525 4250 2034 4250
z
M 2034 4750
Q 2819 4750 3233 4129
Q 3647 3509 3647 2328
Q 3647 1150 3233 529
Q 2819 -91 2034 -91
Q 1250 -91 836 529
Q 422 1150 422 2328
Q 422 3509 836 4129
Q 1250 4750 2034 4750
z
" transform="scale(0.015625)"/>
       </defs>
       <use xlink:href="#DejaVuSans-30"/>
      </g>
     </g>
    </g>
    <g id="xtick_2">
     <g id="line2d_3">
      <path d="M 113.510313 318.04
L 113.510313 14.76
" clip-path="url(#p214891e866)" style="fill: none; stroke: #b0b0b0; stroke-width: 0.8; stroke-linecap: square"/>
     </g>
     <g id="line2d_4">
      <g>
       <use xlink:href="#mdb821ee5d7" x="113.510313" y="318.04" style="stroke: #000000; stroke-width: 0.8"/>
      </g>
     </g>
     <g id="text_2">
      <!-- 25 -->
      <g transform="translate(107.147813 332.638438) scale(0.1 -0.1)">
       <defs>
        <path id="DejaVuSans-32" d="M 1228 531
L 3431 531
L 3431 0
L 469 0
L 469 531
Q 828 903 1448 1529
Q 2069 2156 2228 2338
Q 2531 2678 2651 2914
Q 2772 3150 2772 3378
Q 2772 3750 2511 3984
Q 2250 4219 1831 4219
Q 1534 4219 1204 4116
Q 875 4013 500 3803
L 500 4441
Q 881 4594 1212 4672
Q 1544 4750 1819 4750
Q 2544 4750 2975 4387
Q 3406 4025 3406 3419
Q 3406 3131 3298 2873
Q 3191 2616 2906 2266
Q 2828 2175 2409 1742
Q 1991 1309 1228 531
z
" transform="scale(0.015625)"/>
        <path id="DejaVuSans-35" d="M 691 4666
L 3169 4666
L 3169 4134
L 1269 4134
L 1269 2991
Q 1406 3038 1543 3061
Q 1681 3084 1819 3084
Q 2600 3084 3056 2656
Q 3513 2228 3513 1497
Q 3513 744 3044 326
Q 2575 -91 1722 -91
Q 1428 -91 1123 -41
Q 819 9 494 109
L 494 744
Q 775 591 1075 516
Q 1375 441 1709 441
Q 2250 441 2565 725
Q 2881 1009 2881 1497
Q 2881 1984 2565 2268
Q 2250 2553 1709 2553
Q 1456 2553 1204 2497
Q 953 2441 691 2322
L 691 4666
z
" transform="scale(0.015625)"/>
       </defs>
       <use xlink:href="#DejaVuSans-32"/>
       <use xlink:href="#DejaVuSans-35" x="63.623047"/>
      </g>
     </g>
    </g>
    <g id="xtick_3">
     <g id="line2d_5">
      <path d="M 166.385625 318.04
L 166.385625 14.76
" clip-path="url(#p214891e866)" style="fill: none; stroke: #b0b0b0; stroke-width: 0.8; stroke-linecap: square"/>
     </g>
     <g id="line2d_6">
      <g>
       <use xlink:href="#mdb821ee5d7" x="166.385625" y="318.04" style="stroke: #000000; stroke-width: 0.8"/>
      </g>
     </g>
     <g id="text_3">
      <!-- 50 -->
      <g transform="translate(160.023125 332.638438) scale(0.1 -0.1)">
       <use xlink:href="#DejaVuSans-35"/>
       <use xlink:href="#DejaVuSans-30" x="63.623047"/>
      </g>
     </g>
    </g>
    <g id="xtick_4">
     <g id="line2d_7">
      <path d="M 219.260938 318.04
L 219.260938 14.76
" clip-path="url(#p214891e866)" style="fill: none; stroke: #b0b0b0; stroke-width: 0.8; stroke-linecap: square"/>
     </g>
     <g id="line2d_8">
      <g>
       <use xlink:href="#mdb821ee5d7" x="219.260938" y="318.04" style="stroke: #000000; stroke-width: 0.8"/>
      </g>
     </g>
     <g id="text_4">
      <!-- 75 -->
      <g transform="translate(212.898438 332.638438) scale(0.1 -0.1)">
       <defs>
        <path id="DejaVuSans-37" d="M 525 4666
L 3525 4666
L 3525 4397
L 1831 0
L 1172 0
L 2766 4134
L 525 4134
L 525 4666
z
" transform="scale(0.015625)"/>
       </defs>
       <use xlink:href="#DejaVuSans-37"/>
       <use xlink:href="#DejaVuSans-35" x="63.623047"/>
      </g>
     </g>
    </g>
    <g id="xtick_5">
     <g id="line2d_9">
      <path d="M 272.13625 318.04
L 272.13625 14.76
" clip-path="url(#p214891e866)" style="fill: none; stroke: #b0b0b0; stroke-width: 0.8; stroke-linecap: square"/>
     </g>
     <g id="line2d_10">
      <g>
       <use xlink:href="#mdb821ee5d7" x="272.13625" y="318.04" style="stroke: #000000; stroke-width: 0.8"/>
      </g>
     </g>
     <g id="text_5">
      <!-- 100 -->
      <g transform="translate(262.5925 332.638438) scale(0.1 -0.1)">
       <defs>
        <path id="DejaVuSans-31" d="M 794 531
L 1825 531
L 1825 4091
L 703 3866
L 703 4441
L 1819 4666
L 2450 4666
L 2450 531
L 3481 531
L 3481 0
L 794 0
L 794 531
z
" transform="scale(0.015625)"/>
       </defs>
       <use xlink:href="#DejaVuSans-31"/>
       <use xlink:href="#DejaVuSans-30" x="63.623047"/>
       <use xlink:href="#DejaVuSans-30" x="127.246094"/>
      </g>
     </g>
    </g>
    <g id="xtick_6">
     <g id="line2d_11">
      <path d="M 325.011563 318.04
L 325.011563 14.76
" clip-path="url(#p214891e866)" style="fill: none; stroke: #b0b0b0; stroke-width: 0.8; stroke-linecap: square"/>
     </g>
     <g id="line2d_12">
      <g>
       <use xlink:href="#mdb821ee5d7" x="325.011563" y="318.04" style="stroke: #000000; stroke-width: 0.8"/>
      </g>
     </g>
     <g id="text_6">
      <!-- 125 -->
      <g transform="translate(315.467813 332.638438) scale(0.1 -0.1)">
       <use xlink:href="#DejaVuSans-31"/>
       <use xlink:href="#DejaVuSans-32" x="63.623047"/>
       <use xlink:href="#DejaVuSans-35" x="127.246094"/>
      </g>
     </g>
    </g>
    <g id="xtick_7">
     <g id="line2d_13">
      <path d="M 377.886875 318.04
L 377.886875 14.76
" clip-path="url(#p214891e866)" style="fill: none; stroke: #b0b0b0; stroke-width: 0.8; stroke-linecap: square"/>
     </g>
     <g id="line2d_14">
      <g>
       <use xlink:href="#mdb821ee5d7" x="377.886875" y="318.04" style="stroke: #000000; stroke-width: 0.8"/>
      </g>
     </g>
     <g id="text_7">
      <!-- 150 -->
      <g transform="translate(368.343125 332.638438) scale(0.1 -0.1)">
       <use xlink:href="#DejaVuSans-31"/>
       <use xlink:href="#DejaVuSans-35" x="63.623047"/>
       <use xlink:href="#DejaVuSans-30" x="127.246094"/>
      </g>
     </g>
    </g>
    <g id="xtick_8">
     <g id="line2d_15">
      <path d="M 430.762188 318.04
L 430.762188 14.76
" clip-path="url(#p214891e866)" style="fill: none; stroke: #b0b0b0; stroke-width: 0.8; stroke-linecap: square"/>
     </g>
     <g id="line2d_16">
      <g>
       <use xlink:href="#mdb821ee5d7" x="430.762188" y="318.04" style="stroke: #000000; stroke-width: 0.8"/>
      </g>
     </g>
     <g id="text_8">
      <!-- 175 -->
      <g transform="translate(421.218438 332.638438) scale(0.1 -0.1)">
       <use xlink:href="#DejaVuSans-31"/>
       <use xlink:href="#DejaVuSans-37" x="63.623047"/>
       <use xlink:href="#DejaVuSans-35" x="127.246094"/>
      </g>
     </g>
    </g>
    <g id="xtick_9">
     <g id="line2d_17">
      <path d="M 483.6375 318.04
L 483.6375 14.76
" clip-path="url(#p214891e866)" style="fill: none; stroke: #b0b0b0; stroke-width: 0.8; stroke-linecap: square"/>
     </g>
     <g id="line2d_18">
      <g>
       <use xlink:href="#mdb821ee5d7" x="483.6375" y="318.04" style="stroke: #000000; stroke-width: 0.8"/>
      </g>
     </g>
     <g id="text_9">
      <!-- 200 -->
      <g transform="translate(474.09375 332.638438) scale(0.1 -0.1)">
       <use xlink:href="#DejaVuSans-32"/>
       <use xlink:href="#DejaVuSans-30" x="63.623047"/>
       <use xlink:href="#DejaVuSans-30" x="127.246094"/>
      </g>
     </g>
    </g>
    <g id="text_10">
     <!-- Distance to Shore (km) -->
     <g transform="translate(214.397969 346.316563) scale(0.1 -0.1)">
      <defs>
       <path id="DejaVuSans-44" d="M 1259 4147
L 1259 519
L 2022 519
Q 2988 519 3436 956
Q 3884 1394 3884 2338
Q 3884 3275 3436 3711
Q 2988 4147 2022 4147
L 1259 4147
z
M 628 4666
L 1925 4666
Q 3281 4666 3915 4102
Q 4550 3538 4550 2338
Q 4550 1131 3912 565
Q 3275 0 1925 0
L 628 0
L 628 4666
z
" transform="scale(0.015625)"/>
       <path id="DejaVuSans-69" d="M 603 3500
L 1178 3500
L 1178 0
L 603 0
L 603 3500
z
M 603 4863
L 1178 4863
L 1178 4134
L 603 4134
L 603 4863
z
" transform="scale(0.015625)"/>
       <path id="DejaVuSans-73" d="M 2834 3397
L 2834 2853
Q 2591 2978 2328 3040
Q 2066 3103 1784 3103
Q 1356 3103 1142 2972
Q 928 2841 928 2578
Q 928 2378 1081 2264
Q 1234 2150 1697 2047
L 1894 2003
Q 2506 1872 2764 1633
Q 3022 1394 3022 966
Q 3022 478 2636 193
Q 2250 -91 1575 -91
Q 1294 -91 989 -36
Q 684 19 347 128
L 347 722
Q 666 556 975 473
Q 1284 391 1588 391
Q 1994 391 2212 530
Q 2431 669 2431 922
Q 2431 1156 2273 1281
Q 2116 1406 1581 1522
L 1381 1569
Q 847 1681 609 1914
Q 372 2147 372 2553
Q 372 3047 722 3315
Q 1072 3584 1716 3584
Q 2034 3584 2315 3537
Q 2597 3491 2834 3397
z
" transform="scale(0.015625)"/>
       <path id="DejaVuSans-74" d="M 1172 4494
L 1172 3500
L 2356 3500
L 2356 3053
L 1172 3053
L 1172 1153
Q 1172 725 1289 603
Q 1406 481 1766 481
L 2356 481
L 2356 0
L 1766 0
Q 1100 0 847 248
Q 594 497 594 1153
L 594 3053
L 172 3053
L 172 3500
L 594 3500
L 594 4494
L 1172 4494
z
" transform="scale(0.015625)"/>
       <path id="DejaVuSans-61" d="M 2194 1759
Q 1497 1759 1228 1600
Q 959 1441 959 1056
Q 959 750 1161 570
Q 1363 391 1709 391
Q 2188 391 2477 730
Q 2766 1069 2766 1631
L 2766 1759
L 2194 1759
z
M 3341 1997
L 3341 0
L 2766 0
L 2766 531
Q 2569 213 2275 61
Q 1981 -91 1556 -91
Q 1019 -91 701 211
Q 384 513 384 1019
Q 384 1609 779 1909
Q 1175 2209 1959 2209
L 2766 2209
L 2766 2266
Q 2766 2663 2505 2880
Q 2244 3097 1772 3097
Q 1472 3097 1187 3025
Q 903 2953 641 2809
L 641 3341
Q 956 3463 1253 3523
Q 1550 3584 1831 3584
Q 2591 3584 2966 3190
Q 3341 2797 3341 1997
z
" transform="scale(0.015625)"/>
       <path id="DejaVuSans-6e" d="M 3513 2113
L 3513 0
L 2938 0
L 2938 2094
Q 2938 2591 2744 2837
Q 2550 3084 2163 3084
Q 1697 3084 1428 2787
Q 1159 2491 1159 1978
L 1159 0
L 581 0
L 581 3500
L 1159 3500
L 1159 2956
Q 1366 3272 1645 3428
Q 1925 3584 2291 3584
Q 2894 3584 3203 3211
Q 3513 2838 3513 2113
z
" transform="scale(0.015625)"/>
       <path id="DejaVuSans-63" d="M 3122 3366
L 3122 2828
Q 2878 2963 2633 3030
Q 2388 3097 2138 3097
Q 1578 3097 1268 2742
Q 959 2388 959 1747
Q 959 1106 1268 751
Q 1578 397 2138 397
Q 2388 397 2633 464
Q 2878 531 3122 666
L 3122 134
Q 2881 22 2623 -34
Q 2366 -91 2075 -91
Q 1284 -91 818 406
Q 353 903 353 1747
Q 353 2603 823 3093
Q 1294 3584 2113 3584
Q 2378 3584 2631 3529
Q 2884 3475 3122 3366
z
" transform="scale(0.015625)"/>
       <path id="DejaVuSans-65" d="M 3597 1894
L 3597 1613
L 953 1613
Q 991 1019 1311 708
Q 1631 397 2203 397
Q 2534 397 2845 478
Q 3156 559 3463 722
L 3463 178
Q 3153 47 2828 -22
Q 2503 -91 2169 -91
Q 1331 -91 842 396
Q 353 884 353 1716
Q 353 2575 817 3079
Q 1281 3584 2069 3584
Q 2775 3584 3186 3129
Q 3597 2675 3597 1894
z
M 3022 2063
Q 3016 2534 2758 2815
Q 2500 3097 2075 3097
Q 1594 3097 1305 2825
Q 1016 2553 972 2059
L 3022 2063
z
" transform="scale(0.015625)"/>
       <path id="DejaVuSans-20" transform="scale(0.015625)"/>
       <path id="DejaVuSans-6f" d="M 1959 3097
Q 1497 3097 1228 2736
Q 959 2375 959 1747
Q 959 1119 1226 758
Q 1494 397 1959 397
Q 2419 397 2687 759
Q 2956 1122 2956 1747
Q 2956 2369 2687 2733
Q 2419 3097 1959 3097
z
M 1959 3584
Q 2709 3584 3137 3096
Q 3566 2609 3566 1747
Q 3566 888 3137 398
Q 2709 -91 1959 -91
Q 1206 -91 779 398
Q 353 888 353 1747
Q 353 2609 779 3096
Q 1206 3584 1959 3584
z
" transform="scale(0.015625)"/>
       <path id="DejaVuSans-53" d="M 3425 4513
L 3425 3897
Q 3066 4069 2747 4153
Q 2428 4238 2131 4238
Q 1616 4238 1336 4038
Q 1056 3838 1056 3469
Q 1056 3159 1242 3001
Q 1428 2844 1947 2747
L 2328 2669
Q 3034 2534 3370 2195
Q 3706 1856 3706 1288
Q 3706 609 3251 259
Q 2797 -91 1919 -91
Q 1588 -91 1214 -16
Q 841 59 441 206
L 441 856
Q 825 641 1194 531
Q 1563 422 1919 422
Q 2459 422 2753 634
Q 3047 847 3047 1241
Q 3047 1584 2836 1778
Q 2625 1972 2144 2069
L 1759 2144
Q 1053 2284 737 2584
Q 422 2884 422 3419
Q 422 4038 858 4394
Q 1294 4750 2059 4750
Q 2388 4750 2728 4690
Q 3069 4631 3425 4513
z
" transform="scale(0.015625)"/>
       <path id="DejaVuSans-68" d="M 3513 2113
L 3513 0
L 2938 0
L 2938 2094
Q 2938 2591 2744 2837
Q 2550 3084 2163 3084
Q 1697 3084 1428 2787
Q 1159 2491 1159 1978
L 1159 0
L 581 0
L 581 4863
L 1159 4863
L 1159 2956
Q 1366 3272 1645 3428
Q 1925 3584 2291 3584
Q 2894 3584 3203 3211
Q 3513 2838 3513 2113
z
" transform="scale(0.015625)"/>
       <path id="DejaVuSans-72" d="M 2631 2963
Q 2534 3019 2420 3045
Q 2306 3072 2169 3072
Q 1681 3072 1420 2755
Q 1159 2438 1159 1844
L 1159 0
L 581 0
L 581 3500
L 1159 3500
L 1159 2956
Q 1341 3275 1631 3429
Q 1922 3584 2338 3584
Q 2397 3584 2469 3576
Q 2541 3569 2628 3553
L 2631 2963
z
" transform="scale(0.015625)"/>
       <path id="DejaVuSans-28" d="M 1984 4856
Q 1566 4138 1362 3434
Q 1159 2731 1159 2009
Q 1159 1288 1364 580
Q 1569 -128 1984 -844
L 1484 -844
Q 1016 -109 783 600
Q 550 1309 550 2009
Q 550 2706 781 3412
Q 1013 4119 1484 4856
L 1984 4856
z
" transform="scale(0.015625)"/>
       <path id="DejaVuSans-6b" d="M 581 4863
L 1159 4863
L 1159 1991
L 2875 3500
L 3609 3500
L 1753 1863
L 3688 0
L 2938 0
L 1159 1709
L 1159 0
L 581 0
L 581 4863
z
" transform="scale(0.015625)"/>
       <path id="DejaVuSans-6d" d="M 3328 2828
Q 3544 3216 3844 3400
Q 4144 3584 4550 3584
Q 5097 3584 5394 3201
Q 5691 2819 5691 2113
L 5691 0
L 5113 0
L 5113 2094
Q 5113 2597 4934 2840
Q 4756 3084 4391 3084
Q 3944 3084 3684 2787
Q 3425 2491 3425 1978
L 3425 0
L 2847 0
L 2847 2094
Q 2847 2600 2669 2842
Q 2491 3084 2119 3084
Q 1678 3084 1418 2786
Q 1159 2488 1159 1978
L 1159 0
L 581 0
L 581 3500
L 1159 3500
L 1159 2956
Q 1356 3278 1631 3431
Q 1906 3584 2284 3584
Q 2666 3584 2933 3390
Q 3200 3197 3328 2828
z
" transform="scale(0.015625)"/>
       <path id="DejaVuSans-29" d="M 513 4856
L 1013 4856
Q 1481 4119 1714 3412
Q 1947 2706 1947 2009
Q 1947 1309 1714 600
Q 1481 -109 1013 -844
L 513 -844
Q 928 -128 1133 580
Q 1338 1288 1338 2009
Q 1338 2731 1133 3434
Q 928 4138 513 4856
z
" transform="scale(0.015625)"/>
      </defs>
      <use xlink:href="#DejaVuSans-44"/>
      <use xlink:href="#DejaVuSans-69" x="77.001953"/>
      <use xlink:href="#DejaVuSans-73" x="104.785156"/>
      <use xlink:href="#DejaVuSans-74" x="156.884766"/>
      <use xlink:href="#DejaVuSans-61" x="196.09375"/>
      <use xlink:href="#DejaVuSans-6e" x="257.373047"/>
      <use xlink:href="#DejaVuSans-63" x="320.751953"/>
      <use xlink:href="#DejaVuSans-65" x="375.732422"/>
      <use xlink:href="#DejaVuSans-20" x="437.255859"/>
      <use xlink:href="#DejaVuSans-74" x="469.042969"/>
      <use xlink:href="#DejaVuSans-6f" x="508.251953"/>
      <use xlink:href="#DejaVuSans-20" x="569.433594"/>
      <use xlink:href="#DejaVuSans-53" x="601.220703"/>
      <use xlink:href="#DejaVuSans-68" x="664.697266"/>
      <use xlink:href="#DejaVuSans-6f" x="728.076172"/>
      <use xlink:href="#DejaVuSans-72" x="789.257812"/>
      <use xlink:href="#DejaVuSans-65" x="828.121094"/>
      <use xlink:href="#DejaVuSans-20" x="889.644531"/>
      <use xlink:href="#DejaVuSans-28" x="921.431641"/>
      <use xlink:href="#DejaVuSans-6b" x="960.445312"/>
      <use xlink:href="#DejaVuSans-6d" x="1018.355469"/>
      <use xlink:href="#DejaVuSans-29" x="1115.767578"/>
     </g>
    </g>
   </g>
   <g id="matplotlib.axis_2">
    <g id="ytick_1">
     <g id="line2d_19">
      <path d="M 60.635 318.04
L 483.6375 318.04
" clip-path="url(#p214891e866)" style="fill: none; stroke: #b0b0b0; stroke-width: 0.8; stroke-linecap: square"/>
     </g>
     <g id="line2d_20">
      <defs>
       <path id="med797c28e2" d="M 0 0
L -3.5 0
" style="stroke: #000000; stroke-width: 0.8"/>
      </defs>
      <g>
       <use xlink:href="#med797c28e2" x="60.635" y="318.04" style="stroke: #000000; stroke-width: 0.8"/>
      </g>
     </g>
     <g id="text_11">
      <!-- 2,000 -->
      <g transform="translate(25.006875 321.839219) scale(0.1 -0.1)">
       <defs>
        <path id="DejaVuSans-2c" d="M 750 794
L 1409 794
L 1409 256
L 897 -744
L 494 -744
L 750 256
L 750 794
z
" transform="scale(0.015625)"/>
       </defs>
       <use xlink:href="#DejaVuSans-32"/>
       <use xlink:href="#DejaVuSans-2c" x="63.623047"/>
       <use xlink:href="#DejaVuSans-30" x="95.410156"/>
       <use xlink:href="#DejaVuSans-30" x="159.033203"/>
       <use xlink:href="#DejaVuSans-30" x="222.65625"/>
      </g>
     </g>
    </g>
    <g id="ytick_2">
     <g id="line2d_21">
      <path d="M 60.635 280.13
L 483.6375 280.13
" clip-path="url(#p214891e866)" style="fill: none; stroke: #b0b0b0; stroke-width: 0.8; stroke-linecap: square"/>
     </g>
     <g id="line2d_22">
      <g>
       <use xlink:href="#med797c28e2" x="60.635" y="280.13" style="stroke: #000000; stroke-width: 0.8"/>
      </g>
     </g>
     <g id="text_12">
      <!-- 2,250 -->
      <g transform="translate(25.006875 283.929219) scale(0.1 -0.1)">
       <use xlink:href="#DejaVuSans-32"/>
       <use xlink:href="#DejaVuSans-2c" x="63.623047"/>
       <use xlink:href="#DejaVuSans-32" x="95.410156"/>
       <use xlink:href="#DejaVuSans-35" x="159.033203"/>
       <use xlink:href="#DejaVuSans-30" x="222.65625"/>
      </g>
     </g>
    </g>
    <g id="ytick_3">
     <g id="line2d_23">
      <path d="M 60.635 242.22
L 483.6375 242.22
" clip-path="url(#p214891e866)" style="fill: none; stroke: #b0b0b0; stroke-width: 0.8; stroke-linecap: square"/>
     </g>
     <g id="line2d_24">
      <g>
       <use xlink:href="#med797c28e2" x="60.635" y="242.22" style="stroke: #000000; stroke-width: 0.8"/>
      </g>
     </g>
     <g id="text_13">
      <!-- 2,500 -->
      <g transform="translate(25.006875 246.019219) scale(0.1 -0.1)">
       <use xlink:href="#DejaVuSans-32"/>
       <use xlink:href="#DejaVuSans-2c" x="63.623047"/>
       <use xlink:href="#DejaVuSans-35" x="95.410156"/>
       <use xlink:href="#DejaVuSans-30" x="159.033203"/>
       <use xlink:href="#DejaVuSans-30" x="222.65625"/>
      </g>
     </g>
    </g>
    <g id="ytick_4">
     <g id="line2d_25">
      <path d="M 60.635 204.31
L 483.6375 204.31
" clip-path="url(#p214891e866)" style="fill: none; stroke: #b0b0b0; stroke-width: 0.8; stroke-linecap: square"/>
     </g>
     <g id="line2d_26">
      <g>
       <use xlink:href="#med797c28e2" x="60.635" y="204.31" style="stroke: #000000; stroke-width: 0.8"/>
      </g>
     </g>
     <g id="text_14">
      <!-- 2,750 -->
      <g transform="translate(25.006875 208.109219) scale(0.1 -0.1)">
       <use xlink:href="#DejaVuSans-32"/>
       <use xlink:href="#DejaVuSans-2c" x="63.623047"/>
       <use xlink:href="#DejaVuSans-37" x="95.410156"/>
       <use xlink:href="#DejaVuSans-35" x="159.033203"/>
       <use xlink:href="#DejaVuSans-30" x="222.65625"/>
      </g>
     </g>
    </g>
    <g id="ytick_5">
     <g id="line2d_27">
      <path d="M 60.635 166.4
L 483.6375 166.4
" clip-path="url(#p214891e866)" style="fill: none; stroke: #b0b0b0; stroke-width: 0.8; stroke-linecap: square"/>
     </g>
     <g id="line2d_28">
      <g>
       <use xlink:href="#med797c28e2" x="60.635" y="166.4" style="stroke: #000000; stroke-width: 0.8"/>
      </g>
     </g>
     <g id="text_15">
      <!-- 3,000 -->
      <g transform="translate(25.006875 170.199219) scale(0.1 -0.1)">
       <defs>
        <path id="DejaVuSans-33" d="M 2597 2516
Q 3050 2419 3304 2112
Q 3559 1806 3559 1356
Q 3559 666 3084 287
Q 2609 -91 1734 -91
Q 1441 -91 1130 -33
Q 819 25 488 141
L 488 750
Q 750 597 1062 519
Q 1375 441 1716 441
Q 2309 441 2620 675
Q 2931 909 2931 1356
Q 2931 1769 2642 2001
Q 2353 2234 1838 2234
L 1294 2234
L 1294 2753
L 1863 2753
Q 2328 2753 2575 2939
Q 2822 3125 2822 3475
Q 2822 3834 2567 4026
Q 2313 4219 1838 4219
Q 1578 4219 1281 4162
Q 984 4106 628 3988
L 628 4550
Q 988 4650 1302 4700
Q 1616 4750 1894 4750
Q 2613 4750 3031 4423
Q 3450 4097 3450 3541
Q 3450 3153 3228 2886
Q 3006 2619 2597 2516
z
" transform="scale(0.015625)"/>
       </defs>
       <use xlink:href="#DejaVuSans-33"/>
       <use xlink:href="#DejaVuSans-2c" x="63.623047"/>
       <use xlink:href="#DejaVuSans-30" x="95.410156"/>
       <use xlink:href="#DejaVuSans-30" x="159.033203"/>
       <use xlink:href="#DejaVuSans-30" x="222.65625"/>
      </g>
     </g>
    </g>
    <g id="ytick_6">
     <g id="line2d_29">
      <path d="M 60.635 128.49
L 483.6375 128.49
" clip-path="url(#p214891e866)" style="fill: none; stroke: #b0b0b0; stroke-width: 0.8; stroke-linecap: square"/>
     </g>
     <g id="line2d_30">
      <g>
       <use xlink:href="#med797c28e2" x="60.635" y="128.49" style="stroke: #000000; stroke-width: 0.8"/>
      </g>
     </g>
     <g id="text_16">
      <!-- 3,250 -->
      <g transform="translate(25.006875 132.289219) scale(0.1 -0.1)">
       <use xlink:href="#DejaVuSans-33"/>
       <use xlink:href="#DejaVuSans-2c" x="63.623047"/>
       <use xlink:href="#DejaVuSans-32" x="95.410156"/>
       <use xlink:href="#DejaVuSans-35" x="159.033203"/>
       <use xlink:href="#DejaVuSans-30" x="222.65625"/>
      </g>
     </g>
    </g>
    <g id="ytick_7">
     <g id="line2d_31">
      <path d="M 60.635 90.58
L 483.6375 90.58
" clip-path="url(#p214891e866)" style="fill: none; stroke: #b0b0b0; stroke-width: 0.8; stroke-linecap: square"/>
     </g>
     <g id="line2d_32">
      <g>
       <use xlink:href="#med797c28e2" x="60.635" y="90.58" style="stroke: #000000; stroke-width: 0.8"/>
      </g>
     </g>
     <g id="text_17">
      <!-- 3,500 -->
      <g transform="translate(25.006875 94.379219) scale(0.1 -0.1)">
       <use xlink:href="#DejaVuSans-33"/>
       <use xlink:href="#DejaVuSans-2c" x="63.623047"/>
       <use xlink:href="#DejaVuSans-35" x="95.410156"/>
       <use xlink:href="#DejaVuSans-30" x="159.033203"/>
       <use xlink:href="#DejaVuSans-30" x="222.65625"/>
      </g>
     </g>
    </g>
    <g id="ytick_8">
     <g id="line2d_33">
      <path d="M 60.635 52.67
L 483.6375 52.67
" clip-path="url(#p214891e866)" style="fill: none; stroke: #b0b0b0; stroke-width: 0.8; stroke-linecap: square"/>
     </g>
     <g id="line2d_34">
      <g>
       <use xlink:href="#med797c28e2" x="60.635" y="52.67" style="stroke: #000000; stroke-width: 0.8"/>
      </g>
     </g>
     <g id="text_18">
      <!-- 3,750 -->
      <g transform="translate(25.006875 56.469219) scale(0.1 -0.1)">
       <use xlink:href="#DejaVuSans-33"/>
       <use xlink:href="#DejaVuSans-2c" x="63.623047"/>
       <use xlink:href="#DejaVuSans-37" x="95.410156"/>
       <use xlink:href="#DejaVuSans-35" x="159.033203"/>
       <use xlink:href="#DejaVuSans-30" x="222.65625"/>
      </g>
     </g>
    </g>
    <g id="ytick_9">
     <g id="line2d_35">
      <path d="M 60.635 14.76
L 483.6375 14.76
" clip-path="url(#p214891e866)" style="fill: none; stroke: #b0b0b0; stroke-width: 0.8; stroke-linecap: square"/>
     </g>
     <g id="line2d_36">
      <g>
       <use xlink:href="#med797c28e2" x="60.635" y="14.76" style="stroke: #000000; stroke-width: 0.8"/>
      </g>
     </g>
     <g id="text_19">
      <!-- 4,000 -->
      <g transform="translate(25.006875 18.559219) scale(0.1 -0.1)">
       <defs>
        <path id="DejaVuSans-34" d="M 2419 4116
L 825 1625
L 2419 1625
L 2419 4116
z
M 2253 4666
L 3047 4666
L 3047 1625
L 3713 1625
L 3713 1100
L 3047 1100
L 3047 0
L 2419 0
L 2419 1100
L 313 1100
L 313 1709
L 2253 4666
z
" transform="scale(0.015625)"/>
       </defs>
       <use xlink:href="#DejaVuSans-34"/>
       <use xlink:href="#DejaVuSans-2c" x="63.623047"/>
       <use xlink:href="#DejaVuSans-30" x="95.410156"/>
       <use xlink:href="#DejaVuSans-30" x="159.033203"/>
       <use xlink:href="#DejaVuSans-30" x="222.65625"/>
      </g>
     </g>
    </g>
    <g id="text_20">
     <!-- CapEx per kW ($/kW) -->
     <g transform="translate(18.927188 219.767188) rotate(-90) scale(0.1 -0.1)">
      <defs>
       <path id="DejaVuSans-43" d="M 4122 4306
L 4122 3641
Q 3803 3938 3442 4084
Q 3081 4231 2675 4231
Q 1875 4231 1450 3742
Q 1025 3253 1025 2328
Q 1025 1406 1450 917
Q 1875 428 2675 428
Q 3081 428 3442 575
Q 3803 722 4122 1019
L 4122 359
Q 3791 134 3420 21
Q 3050 -91 2638 -91
Q 1578 -91 968 557
Q 359 1206 359 2328
Q 359 3453 968 4101
Q 1578 4750 2638 4750
Q 3056 4750 3426 4639
Q 3797 4528 4122 4306
z
" transform="scale(0.015625)"/>
       <path id="DejaVuSans-70" d="M 1159 525
L 1159 -1331
L 581 -1331
L 581 3500
L 1159 3500
L 1159 2969
Q 1341 3281 1617 3432
Q 1894 3584 2278 3584
Q 2916 3584 3314 3078
Q 3713 2572 3713 1747
Q 3713 922 3314 415
Q 2916 -91 2278 -91
Q 1894 -91 1617 61
Q 1341 213 1159 525
z
M 3116 1747
Q 3116 2381 2855 2742
Q 2594 3103 2138 3103
Q 1681 3103 1420 2742
Q 1159 2381 1159 1747
Q 1159 1113 1420 752
Q 1681 391 2138 391
Q 2594 391 2855 752
Q 3116 1113 3116 1747
z
" transform="scale(0.015625)"/>
       <path id="DejaVuSans-45" d="M 628 4666
L 3578 4666
L 3578 4134
L 1259 4134
L 1259 2753
L 3481 2753
L 3481 2222
L 1259 2222
L 1259 531
L 3634 531
L 3634 0
L 628 0
L 628 4666
z
" transform="scale(0.015625)"/>
       <path id="DejaVuSans-78" d="M 3513 3500
L 2247 1797
L 3578 0
L 2900 0
L 1881 1375
L 863 0
L 184 0
L 1544 1831
L 300 3500
L 978 3500
L 1906 2253
L 2834 3500
L 3513 3500
z
" transform="scale(0.015625)"/>
       <path id="DejaVuSans-57" d="M 213 4666
L 850 4666
L 1831 722
L 2809 4666
L 3519 4666
L 4500 722
L 5478 4666
L 6119 4666
L 4947 0
L 4153 0
L 3169 4050
L 2175 0
L 1381 0
L 213 4666
z
" transform="scale(0.015625)"/>
       <path id="DejaVuSans-24" d="M 2163 -941
L 1850 -941
L 1847 0
Q 1519 6 1191 76
Q 863 147 531 288
L 531 850
Q 850 650 1176 548
Q 1503 447 1850 444
L 1850 1869
Q 1159 1981 845 2250
Q 531 2519 531 2988
Q 531 3497 872 3790
Q 1213 4084 1850 4128
L 1850 4863
L 2163 4863
L 2163 4138
Q 2453 4125 2725 4076
Q 2997 4028 3256 3944
L 3256 3397
Q 2997 3528 2723 3600
Q 2450 3672 2163 3684
L 2163 2350
Q 2872 2241 3206 1959
Q 3541 1678 3541 1191
Q 3541 663 3186 358
Q 2831 53 2163 6
L 2163 -941
z
M 1850 2406
L 1850 3688
Q 1488 3647 1297 3481
Q 1106 3316 1106 3041
Q 1106 2772 1282 2622
Q 1459 2472 1850 2406
z
M 2163 1806
L 2163 453
Q 2559 506 2761 678
Q 2963 850 2963 1131
Q 2963 1406 2770 1568
Q 2578 1731 2163 1806
z
" transform="scale(0.015625)"/>
       <path id="DejaVuSans-2f" d="M 1625 4666
L 2156 4666
L 531 -594
L 0 -594
L 1625 4666
z
" transform="scale(0.015625)"/>
      </defs>
      <use xlink:href="#DejaVuSans-43"/>
      <use xlink:href="#DejaVuSans-61" x="69.824219"/>
      <use xlink:href="#DejaVuSans-70" x="131.103516"/>
      <use xlink:href="#DejaVuSans-45" x="194.580078"/>
      <use xlink:href="#DejaVuSans-78" x="257.763672"/>
      <use xlink:href="#DejaVuSans-20" x="316.943359"/>
      <use xlink:href="#DejaVuSans-70" x="348.730469"/>
      <use xlink:href="#DejaVuSans-65" x="412.207031"/>
      <use xlink:href="#DejaVuSans-72" x="473.730469"/>
      <use xlink:href="#DejaVuSans-20" x="514.84375"/>
      <use xlink:href="#DejaVuSans-6b" x="546.630859"/>
      <use xlink:href="#DejaVuSans-57" x="604.541016"/>
      <use xlink:href="#DejaVuSans-20" x="703.417969"/>
      <use xlink:href="#DejaVuSans-28" x="735.205078"/>
      <use xlink:href="#DejaVuSans-24" x="774.21875"/>
      <use xlink:href="#DejaVuSans-2f" x="837.841797"/>
      <use xlink:href="#DejaVuSans-6b" x="871.533203"/>
      <use xlink:href="#DejaVuSans-57" x="929.443359"/>
      <use xlink:href="#DejaVuSans-29" x="1028.320312"/>
     </g>
    </g>
   </g>
   <g id="PathCollection_1">
    <defs>
     <path id="m312746ea79" d="M 0 3
C 0.795609 3 1.55874 2.683901 2.12132 2.12132
C 2.683901 1.55874 3 0.795609 3 0
C 3 -0.795609 2.683901 -1.55874 2.12132 -2.12132
C 1.55874 -2.683901 0.795609 -3 0 -3
C -0.795609 -3 -1.55874 -2.683901 -2.12132 -2.12132
C -2.683901 -1.55874 -3 -0.795609 -3 0
C -3 0.795609 -2.683901 1.55874 -2.12132 2.12132
C -1.55874 2.683901 -0.795609 3 0 3
z
" style="stroke: #1f77b4"/>
    </defs>
    <g clip-path="url(#p214891e866)">
     <use xlink:href="#m312746ea79" x="217.801579" y="98.799518" style="fill: #1f77b4; stroke: #1f77b4"/>
     <use xlink:href="#m312746ea79" x="183.305725" y="172.54419" style="fill: #1f77b4; stroke: #1f77b4"/>
     <use xlink:href="#m312746ea79" x="418.072113" y="114.247574" style="fill: #1f77b4; stroke: #1f77b4"/>
     <use xlink:href="#m312746ea79" x="248.871113" y="95.087356" style="fill: #1f77b4; stroke: #1f77b4"/>
     <use xlink:href="#m312746ea79" x="147.350513" y="160.826131" style="fill: #1f77b4; stroke: #1f77b4"/>
     <use xlink:href="#m312746ea79" x="257.331163" y="120.705858" style="fill: #1f77b4; stroke: #1f77b4"/>
     <use xlink:href="#m312746ea79" x="195.9958" y="161.692833" style="fill: #1f77b4; stroke: #1f77b4"/>
     <use xlink:href="#m312746ea79" x="198.110813" y="150.021829" style="fill: #1f77b4; stroke: #1f77b4"/>
     <use xlink:href="#m312746ea79" x="246.7561" y="108.775173" style="fill: #1f77b4; stroke: #1f77b4"/>
     <use xlink:href="#m312746ea79" x="136.77545" y="134.054009" style="fill: #1f77b4; stroke: #1f77b4"/>
    </g>
   </g>
   <g id="patch_3">
    <path d="M 60.635 318.04
L 60.635 14.76
" style="fill: none; stroke: #000000; stroke-width: 0.8; stroke-linejoin: miter; stroke-linecap: square"/>
   </g>
   <g id="patch_4">
    <path d="M 483.6375 318.04
L 483.6375 14.76
" style="fill: none; stroke: #000000; stroke-width: 0.8; stroke-linejoin: miter; stroke-linecap: square"/>
   </g>
   <g id="patch_5">
    <path d="M 60.635 318.04
L 483.6375 318.04
" style="fill: none; stroke: #000000; stroke-width: 0.8; stroke-linejoin: miter; stroke-linecap: square"/>
   </g>
   <g id="patch_6">
    <path d="M 60.635 14.76
L 483.6375 14.76
" style="fill: none; stroke: #000000; stroke-width: 0.8; stroke-linejoin: miter; stroke-linecap: square"/>
   </g>
   <g id="patch_7">
    <path d="M 214.56227 93.416009
Q 215.667083 95.252133 216.771896 97.088256
" style="fill: none; stroke: #000000; stroke-width: 0.5; stroke-linecap: round"/>
   </g>
   <g id="text_21">
    <!-- Revolution Wind -->
    <g transform="translate(181.846366 88.245337) scale(0.07 -0.07)">
     <defs>
      <path id="DejaVuSans-52" d="M 2841 2188
Q 3044 2119 3236 1894
Q 3428 1669 3622 1275
L 4263 0
L 3584 0
L 2988 1197
Q 2756 1666 2539 1819
Q 2322 1972 1947 1972
L 1259 1972
L 1259 0
L 628 0
L 628 4666
L 2053 4666
Q 2853 4666 3247 4331
Q 3641 3997 3641 3322
Q 3641 2881 3436 2590
Q 3231 2300 2841 2188
z
M 1259 4147
L 1259 2491
L 2053 2491
Q 2509 2491 2742 2702
Q 2975 2913 2975 3322
Q 2975 3731 2742 3939
Q 2509 4147 2053 4147
L 1259 4147
z
" transform="scale(0.015625)"/>
      <path id="DejaVuSans-76" d="M 191 3500
L 800 3500
L 1894 563
L 2988 3500
L 3597 3500
L 2284 0
L 1503 0
L 191 3500
z
" transform="scale(0.015625)"/>
      <path id="DejaVuSans-6c" d="M 603 4863
L 1178 4863
L 1178 0
L 603 0
L 603 4863
z
" transform="scale(0.015625)"/>
      <path id="DejaVuSans-75" d="M 544 1381
L 544 3500
L 1119 3500
L 1119 1403
Q 1119 906 1312 657
Q 1506 409 1894 409
Q 2359 409 2629 706
Q 2900 1003 2900 1516
L 2900 3500
L 3475 3500
L 3475 0
L 2900 0
L 2900 538
Q 2691 219 2414 64
Q 2138 -91 1772 -91
Q 1169 -91 856 284
Q 544 659 544 1381
z
M 1991 3584
L 1991 3584
z
" transform="scale(0.015625)"/>
      <path id="DejaVuSans-64" d="M 2906 2969
L 2906 4863
L 3481 4863
L 3481 0
L 2906 0
L 2906 525
Q 2725 213 2448 61
Q 2172 -91 1784 -91
Q 1150 -91 751 415
Q 353 922 353 1747
Q 353 2572 751 3078
Q 1150 3584 1784 3584
Q 2172 3584 2448 3432
Q 2725 3281 2906 2969
z
M 947 1747
Q 947 1113 1208 752
Q 1469 391 1925 391
Q 2381 391 2643 752
Q 2906 1113 2906 1747
Q 2906 2381 2643 2742
Q 2381 3103 1925 3103
Q 1469 3103 1208 2742
Q 947 2381 947 1747
z
" transform="scale(0.015625)"/>
     </defs>
     <use xlink:href="#DejaVuSans-52"/>
     <use xlink:href="#DejaVuSans-65" x="64.982422"/>
     <use xlink:href="#DejaVuSans-76" x="126.505859"/>
     <use xlink:href="#DejaVuSans-6f" x="185.685547"/>
     <use xlink:href="#DejaVuSans-6c" x="246.867188"/>
     <use xlink:href="#DejaVuSans-75" x="274.650391"/>
     <use xlink:href="#DejaVuSans-74" x="338.029297"/>
     <use xlink:href="#DejaVuSans-69" x="377.238281"/>
     <use xlink:href="#DejaVuSans-6f" x="405.021484"/>
     <use xlink:href="#DejaVuSans-6e" x="466.203125"/>
     <use xlink:href="#DejaVuSans-20" x="529.582031"/>
     <use xlink:href="#DejaVuSans-57" x="561.369141"/>
     <use xlink:href="#DejaVuSans-69" x="657.996094"/>
     <use xlink:href="#DejaVuSans-6e" x="685.779297"/>
     <use xlink:href="#DejaVuSans-64" x="749.158203"/>
    </g>
   </g>
   <g id="patch_8">
    <path d="M 188.70229 175.056921
Q 186.911779 174.223229 185.121269 173.389537
" style="fill: none; stroke: #000000; stroke-width: 0.5; stroke-linecap: round"/>
   </g>
   <g id="text_22">
    <!-- CVOW C -->
    <g transform="translate(187.53575 183.219609) scale(0.07 -0.07)">
     <defs>
      <path id="DejaVuSans-56" d="M 1831 0
L 50 4666
L 709 4666
L 2188 738
L 3669 4666
L 4325 4666
L 2547 0
L 1831 0
z
" transform="scale(0.015625)"/>
      <path id="DejaVuSans-4f" d="M 2522 4238
Q 1834 4238 1429 3725
Q 1025 3213 1025 2328
Q 1025 1447 1429 934
Q 1834 422 2522 422
Q 3209 422 3611 934
Q 4013 1447 4013 2328
Q 4013 3213 3611 3725
Q 3209 4238 2522 4238
z
M 2522 4750
Q 3503 4750 4090 4092
Q 4678 3434 4678 2328
Q 4678 1225 4090 567
Q 3503 -91 2522 -91
Q 1538 -91 948 565
Q 359 1222 359 2328
Q 359 3434 948 4092
Q 1538 4750 2522 4750
z
" transform="scale(0.015625)"/>
     </defs>
     <use xlink:href="#DejaVuSans-43"/>
     <use xlink:href="#DejaVuSans-56" x="69.824219"/>
     <use xlink:href="#DejaVuSans-4f" x="136.482422"/>
     <use xlink:href="#DejaVuSans-57" x="215.193359"/>
     <use xlink:href="#DejaVuSans-20" x="314.070312"/>
     <use xlink:href="#DejaVuSans-43" x="345.857422"/>
    </g>
   </g>
   <g id="patch_9">
    <path d="M 428.907654 112.405162
Q 424.475293 113.158815 420.042932 113.912467
" style="fill: none; stroke: #000000; stroke-width: 0.5; stroke-linecap: round"/>
   </g>
   <g id="text_23">
    <!-- Sunrise Wind -->
    <g transform="translate(432.8772 109.758993) scale(0.07 -0.07)">
     <use xlink:href="#DejaVuSans-53"/>
     <use xlink:href="#DejaVuSans-75" x="63.476562"/>
     <use xlink:href="#DejaVuSans-6e" x="126.855469"/>
     <use xlink:href="#DejaVuSans-72" x="190.234375"/>
     <use xlink:href="#DejaVuSans-69" x="231.347656"/>
     <use xlink:href="#DejaVuSans-73" x="259.130859"/>
     <use xlink:href="#DejaVuSans-65" x="311.230469"/>
     <use xlink:href="#DejaVuSans-20" x="372.753906"/>
     <use xlink:href="#DejaVuSans-57" x="404.541016"/>
     <use xlink:href="#DejaVuSans-69" x="501.167969"/>
     <use xlink:href="#DejaVuSans-6e" x="528.951172"/>
     <use xlink:href="#DejaVuSans-64" x="592.330078"/>
    </g>
   </g>
   <g id="patch_10">
    <path d="M 262.012728 91.543144
Q 256.406045 93.055232 250.799362 94.567319
" style="fill: none; stroke: #000000; stroke-width: 0.5; stroke-linecap: round"/>
   </g>
   <g id="text_24">
    <!-- Kitty Hawk North -->
    <g transform="translate(254.158644 87.565975) scale(0.07 -0.07)">
     <defs>
      <path id="DejaVuSans-4b" d="M 628 4666
L 1259 4666
L 1259 2694
L 3353 4666
L 4166 4666
L 1850 2491
L 4331 0
L 3500 0
L 1259 2247
L 1259 0
L 628 0
L 628 4666
z
" transform="scale(0.015625)"/>
      <path id="DejaVuSans-79" d="M 2059 -325
Q 1816 -950 1584 -1140
Q 1353 -1331 966 -1331
L 506 -1331
L 506 -850
L 844 -850
Q 1081 -850 1212 -737
Q 1344 -625 1503 -206
L 1606 56
L 191 3500
L 800 3500
L 1894 763
L 2988 3500
L 3597 3500
L 2059 -325
z
" transform="scale(0.015625)"/>
      <path id="DejaVuSans-48" d="M 628 4666
L 1259 4666
L 1259 2753
L 3553 2753
L 3553 4666
L 4184 4666
L 4184 0
L 3553 0
L 3553 2222
L 1259 2222
L 1259 0
L 628 0
L 628 4666
z
" transform="scale(0.015625)"/>
      <path id="DejaVuSans-77" d="M 269 3500
L 844 3500
L 1563 769
L 2278 3500
L 2956 3500
L 3675 769
L 4391 3500
L 4966 3500
L 4050 0
L 3372 0
L 2619 2869
L 1863 0
L 1184 0
L 269 3500
z
" transform="scale(0.015625)"/>
      <path id="DejaVuSans-4e" d="M 628 4666
L 1478 4666
L 3547 763
L 3547 4666
L 4159 4666
L 4159 0
L 3309 0
L 1241 3903
L 1241 0
L 628 0
L 628 4666
z
" transform="scale(0.015625)"/>
     </defs>
     <use xlink:href="#DejaVuSans-4b"/>
     <use xlink:href="#DejaVuSans-69" x="65.576172"/>
     <use xlink:href="#DejaVuSans-74" x="93.359375"/>
     <use xlink:href="#DejaVuSans-74" x="132.568359"/>
     <use xlink:href="#DejaVuSans-79" x="171.777344"/>
     <use xlink:href="#DejaVuSans-20" x="230.957031"/>
     <use xlink:href="#DejaVuSans-48" x="262.744141"/>
     <use xlink:href="#DejaVuSans-61" x="337.939453"/>
     <use xlink:href="#DejaVuSans-77" x="399.21875"/>
     <use xlink:href="#DejaVuSans-6b" x="481.005859"/>
     <use xlink:href="#DejaVuSans-20" x="538.916016"/>
     <use xlink:href="#DejaVuSans-4e" x="570.703125"/>
     <use xlink:href="#DejaVuSans-6f" x="645.507812"/>
     <use xlink:href="#DejaVuSans-72" x="706.689453"/>
     <use xlink:href="#DejaVuSans-74" x="747.802734"/>
     <use xlink:href="#DejaVuSans-68" x="787.011719"/>
    </g>
   </g>
   <g id="patch_11">
    <path d="M 139.752361 166.078884
Q 142.729664 164.020615 145.706967 161.962346
" style="fill: none; stroke: #000000; stroke-width: 0.5; stroke-linecap: round"/>
   </g>
   <g id="text_25">
    <!-- US Wind -->
    <g transform="translate(115.625325 174.53435) scale(0.07 -0.07)">
     <defs>
      <path id="DejaVuSans-55" d="M 556 4666
L 1191 4666
L 1191 1831
Q 1191 1081 1462 751
Q 1734 422 2344 422
Q 2950 422 3222 751
Q 3494 1081 3494 1831
L 3494 4666
L 4128 4666
L 4128 1753
Q 4128 841 3676 375
Q 3225 -91 2344 -91
Q 1459 -91 1007 375
Q 556 841 556 1753
L 556 4666
z
" transform="scale(0.015625)"/>
     </defs>
     <use xlink:href="#DejaVuSans-55"/>
     <use xlink:href="#DejaVuSans-53" x="73.193359"/>
     <use xlink:href="#DejaVuSans-20" x="136.669922"/>
     <use xlink:href="#DejaVuSans-57" x="168.457031"/>
     <use xlink:href="#DejaVuSans-69" x="265.083984"/>
     <use xlink:href="#DejaVuSans-6e" x="292.867188"/>
     <use xlink:href="#DejaVuSans-64" x="356.246094"/>
    </g>
   </g>
   <g id="patch_12">
    <path d="M 270.272656 118.622228
Q 264.789267 119.505074 259.305878 120.387921
" style="fill: none; stroke: #000000; stroke-width: 0.5; stroke-linecap: round"/>
   </g>
   <g id="text_26">
    <!-- New England -->
    <g transform="translate(274.251262 116.217276) scale(0.07 -0.07)">
     <defs>
      <path id="DejaVuSans-67" d="M 2906 1791
Q 2906 2416 2648 2759
Q 2391 3103 1925 3103
Q 1463 3103 1205 2759
Q 947 2416 947 1791
Q 947 1169 1205 825
Q 1463 481 1925 481
Q 2391 481 2648 825
Q 2906 1169 2906 1791
z
M 3481 434
Q 3481 -459 3084 -895
Q 2688 -1331 1869 -1331
Q 1566 -1331 1297 -1286
Q 1028 -1241 775 -1147
L 775 -588
Q 1028 -725 1275 -790
Q 1522 -856 1778 -856
Q 2344 -856 2625 -561
Q 2906 -266 2906 331
L 2906 616
Q 2728 306 2450 153
Q 2172 0 1784 0
Q 1141 0 747 490
Q 353 981 353 1791
Q 353 2603 747 3093
Q 1141 3584 1784 3584
Q 2172 3584 2450 3431
Q 2728 3278 2906 2969
L 2906 3500
L 3481 3500
L 3481 434
z
" transform="scale(0.015625)"/>
     </defs>
     <use xlink:href="#DejaVuSans-4e"/>
     <use xlink:href="#DejaVuSans-65" x="74.804688"/>
     <use xlink:href="#DejaVuSans-77" x="136.328125"/>
     <use xlink:href="#DejaVuSans-20" x="218.115234"/>
     <use xlink:href="#DejaVuSans-45" x="249.902344"/>
     <use xlink:href="#DejaVuSans-6e" x="313.085938"/>
     <use xlink:href="#DejaVuSans-67" x="376.464844"/>
     <use xlink:href="#DejaVuSans-6c" x="439.941406"/>
     <use xlink:href="#DejaVuSans-61" x="467.724609"/>
     <use xlink:href="#DejaVuSans-6e" x="529.003906"/>
     <use xlink:href="#DejaVuSans-64" x="592.382812"/>
    </g>
   </g>
   <g id="patch_13">
    <path d="M 217.387068 159.489828
Q 207.68501 160.489006 197.982953 161.488184
" style="fill: none; stroke: #000000; stroke-width: 0.5; stroke-linecap: round"/>
   </g>
   <g id="text_27">
    <!-- Empire Wind -->
    <g transform="translate(221.37595 158.720652) scale(0.07 -0.07)">
     <use xlink:href="#DejaVuSans-45"/>
     <use xlink:href="#DejaVuSans-6d" x="63.183594"/>
     <use xlink:href="#DejaVuSans-70" x="160.595703"/>
     <use xlink:href="#DejaVuSans-69" x="224.072266"/>
     <use xlink:href="#DejaVuSans-72" x="251.855469"/>
     <use xlink:href="#DejaVuSans-65" x="290.71875"/>
     <use xlink:href="#DejaVuSans-20" x="352.242188"/>
     <use xlink:href="#DejaVuSans-57" x="384.029297"/>
     <use xlink:href="#DejaVuSans-69" x="480.65625"/>
     <use xlink:href="#DejaVuSans-6e" x="508.439453"/>
     <use xlink:href="#DejaVuSans-64" x="571.818359"/>
    </g>
   </g>
   <g id="patch_14">
    <path d="M 215.276213 148.146795
Q 207.688821 148.975591 200.101429 149.804387
" style="fill: none; stroke: #000000; stroke-width: 0.5; stroke-linecap: round"/>
   </g>
   <g id="text_28">
    <!-- Atlantic Shores South -->
    <g transform="translate(219.260938 145.533247) scale(0.07 -0.07)">
     <defs>
      <path id="DejaVuSans-41" d="M 2188 4044
L 1331 1722
L 3047 1722
L 2188 4044
z
M 1831 4666
L 2547 4666
L 4325 0
L 3669 0
L 3244 1197
L 1141 1197
L 716 0
L 50 0
L 1831 4666
z
" transform="scale(0.015625)"/>
     </defs>
     <use xlink:href="#DejaVuSans-41"/>
     <use xlink:href="#DejaVuSans-74" x="66.658203"/>
     <use xlink:href="#DejaVuSans-6c" x="105.867188"/>
     <use xlink:href="#DejaVuSans-61" x="133.650391"/>
     <use xlink:href="#DejaVuSans-6e" x="194.929688"/>
     <use xlink:href="#DejaVuSans-74" x="258.308594"/>
     <use xlink:href="#DejaVuSans-69" x="297.517578"/>
     <use xlink:href="#DejaVuSans-63" x="325.300781"/>
     <use xlink:href="#DejaVuSans-20" x="380.28125"/>
     <use xlink:href="#DejaVuSans-53" x="412.068359"/>
     <use xlink:href="#DejaVuSans-68" x="475.544922"/>
     <use xlink:href="#DejaVuSans-6f" x="538.923828"/>
     <use xlink:href="#DejaVuSans-72" x="600.105469"/>
     <use xlink:href="#DejaVuSans-65" x="638.96875"/>
     <use xlink:href="#DejaVuSans-73" x="700.492188"/>
     <use xlink:href="#DejaVuSans-20" x="752.591797"/>
     <use xlink:href="#DejaVuSans-53" x="784.378906"/>
     <use xlink:href="#DejaVuSans-6f" x="847.855469"/>
     <use xlink:href="#DejaVuSans-75" x="909.037109"/>
     <use xlink:href="#DejaVuSans-74" x="972.416016"/>
     <use xlink:href="#DejaVuSans-68" x="1011.625"/>
    </g>
   </g>
   <g id="patch_15">
    <path d="M 280.835412 105.536418
Q 264.792093 107.061108 248.748775 108.585798
" style="fill: none; stroke: #000000; stroke-width: 0.5; stroke-linecap: round"/>
   </g>
   <g id="text_29">
    <!-- Southcoast Wind -->
    <g transform="translate(284.826325 104.286592) scale(0.07 -0.07)">
     <use xlink:href="#DejaVuSans-53"/>
     <use xlink:href="#DejaVuSans-6f" x="63.476562"/>
     <use xlink:href="#DejaVuSans-75" x="124.658203"/>
     <use xlink:href="#DejaVuSans-74" x="188.037109"/>
     <use xlink:href="#DejaVuSans-68" x="227.246094"/>
     <use xlink:href="#DejaVuSans-63" x="290.625"/>
     <use xlink:href="#DejaVuSans-6f" x="345.605469"/>
     <use xlink:href="#DejaVuSans-61" x="406.787109"/>
     <use xlink:href="#DejaVuSans-73" x="468.066406"/>
     <use xlink:href="#DejaVuSans-74" x="520.166016"/>
     <use xlink:href="#DejaVuSans-20" x="559.375"/>
     <use xlink:href="#DejaVuSans-57" x="591.162109"/>
     <use xlink:href="#DejaVuSans-69" x="687.789062"/>
     <use xlink:href="#DejaVuSans-6e" x="715.572266"/>
     <use xlink:href="#DejaVuSans-64" x="778.951172"/>
    </g>
   </g>
   <g id="patch_16">
    <path d="M 147.653575 130.595152
Q 143.166614 132.021846 138.679653 133.44854
" style="fill: none; stroke: #000000; stroke-width: 0.5; stroke-linecap: round"/>
   </g>
   <g id="text_30">
    <!-- Ocean Wind 1 -->
    <g transform="translate(142.062981 126.532628) scale(0.07 -0.07)">
     <use xlink:href="#DejaVuSans-4f"/>
     <use xlink:href="#DejaVuSans-63" x="78.710938"/>
     <use xlink:href="#DejaVuSans-65" x="133.691406"/>
     <use xlink:href="#DejaVuSans-61" x="195.214844"/>
     <use xlink:href="#DejaVuSans-6e" x="256.494141"/>
     <use xlink:href="#DejaVuSans-20" x="319.873047"/>
     <use xlink:href="#DejaVuSans-57" x="351.660156"/>
     <use xlink:href="#DejaVuSans-69" x="448.287109"/>
     <use xlink:href="#DejaVuSans-6e" x="476.070312"/>
     <use xlink:href="#DejaVuSans-64" x="539.449219"/>
     <use xlink:href="#DejaVuSans-20" x="602.925781"/>
     <use xlink:href="#DejaVuSans-31" x="634.712891"/>
    </g>
   </g>
   <g id="legend_1">
    <g id="patch_17">
     <path d="M 245.201562 313.04
L 476.6375 313.04
Q 478.6375 313.04 478.6375 311.04
L 478.6375 297.361875
Q 478.6375 295.361875 476.6375 295.361875
L 245.201562 295.361875
Q 243.201562 295.361875 243.201562 297.361875
L 243.201562 311.04
Q 243.201562 313.04 245.201562 313.04
z
" style="fill: #ffffff; opacity: 0.8; stroke: #cccccc; stroke-linejoin: miter"/>
    </g>
    <g id="PathCollection_2">
     <g>
      <use xlink:href="#m312746ea79" x="257.201562" y="304.335312" style="fill: #1f77b4; stroke: #1f77b4"/>
     </g>
    </g>
    <g id="text_31">
     <!-- Distance to Shore vs CapEx (corr=0.51) -->
     <g transform="translate(275.201562 306.960312) scale(0.1 -0.1)">
      <defs>
       <path id="DejaVuSans-3d" d="M 678 2906
L 4684 2906
L 4684 2381
L 678 2381
L 678 2906
z
M 678 1631
L 4684 1631
L 4684 1100
L 678 1100
L 678 1631
z
" transform="scale(0.015625)"/>
       <path id="DejaVuSans-2e" d="M 684 794
L 1344 794
L 1344 0
L 684 0
L 684 794
z
" transform="scale(0.015625)"/>
      </defs>
      <use xlink:href="#DejaVuSans-44"/>
      <use xlink:href="#DejaVuSans-69" x="77.001953"/>
      <use xlink:href="#DejaVuSans-73" x="104.785156"/>
      <use xlink:href="#DejaVuSans-74" x="156.884766"/>
      <use xlink:href="#DejaVuSans-61" x="196.09375"/>
      <use xlink:href="#DejaVuSans-6e" x="257.373047"/>
      <use xlink:href="#DejaVuSans-63" x="320.751953"/>
      <use xlink:href="#DejaVuSans-65" x="375.732422"/>
      <use xlink:href="#DejaVuSans-20" x="437.255859"/>
      <use xlink:href="#DejaVuSans-74" x="469.042969"/>
      <use xlink:href="#DejaVuSans-6f" x="508.251953"/>
      <use xlink:href="#DejaVuSans-20" x="569.433594"/>
      <use xlink:href="#DejaVuSans-53" x="601.220703"/>
      <use xlink:href="#DejaVuSans-68" x="664.697266"/>
      <use xlink:href="#DejaVuSans-6f" x="728.076172"/>
      <use xlink:href="#DejaVuSans-72" x="789.257812"/>
      <use xlink:href="#DejaVuSans-65" x="828.121094"/>
      <use xlink:href="#DejaVuSans-20" x="889.644531"/>
      <use xlink:href="#DejaVuSans-76" x="921.431641"/>
      <use xlink:href="#DejaVuSans-73" x="980.611328"/>
      <use xlink:href="#DejaVuSans-20" x="1032.710938"/>
      <use xlink:href="#DejaVuSans-43" x="1064.498047"/>
      <use xlink:href="#DejaVuSans-61" x="1134.322266"/>
      <use xlink:href="#DejaVuSans-70" x="1195.601562"/>
      <use xlink:href="#DejaVuSans-45" x="1259.078125"/>
      <use xlink:href="#DejaVuSans-78" x="1322.261719"/>
      <use xlink:href="#DejaVuSans-20" x="1381.441406"/>
      <use xlink:href="#DejaVuSans-28" x="1413.228516"/>
      <use xlink:href="#DejaVuSans-63" x="1452.242188"/>
      <use xlink:href="#DejaVuSans-6f" x="1507.222656"/>
      <use xlink:href="#DejaVuSans-72" x="1568.404297"/>
      <use xlink:href="#DejaVuSans-72" x="1607.767578"/>
      <use xlink:href="#DejaVuSans-3d" x="1648.880859"/>
      <use xlink:href="#DejaVuSans-30" x="1732.669922"/>
      <use xlink:href="#DejaVuSans-2e" x="1796.292969"/>
      <use xlink:href="#DejaVuSans-35" x="1828.080078"/>
      <use xlink:href="#DejaVuSans-31" x="1891.703125"/>
      <use xlink:href="#DejaVuSans-29" x="1955.326172"/>
     </g>
    </g>
   </g>
  </g>
 </g>
 <defs>
  <clipPath id="p214891e866">
   <rect x="60.635" y="14.76" width="423.0025" height="303.28"/>
  </clipPath>
 </defs>
</svg>
